<?xml version="1.0" encoding="utf-8"?>
<!-- Generator: Adobe Illustrator 15.1.0, SVG Export Plug-In . SVG Version: 6.00 Build 0)  -->
<!DOCTYPE svg PUBLIC "-//W3C//DTD SVG 1.1//EN" "http://www.w3.org/Graphics/SVG/1.1/DTD/svg11.dtd">
<svg version="1.1" id="Livello_1" xmlns="http://www.w3.org/2000/svg" xmlns:xlink="http://www.w3.org/1999/xlink" x="0px" y="0px"
	 width="105.979px" height="105.975px" viewBox="0 0 105.979 105.975" enable-background="new 0 0 105.979 105.975"
	 xml:space="preserve">
<g id="Livello_2">
</g>
<g>
	<path fill="#EF4323" d="M75.821,40.001v0.67h0.307v0.755h-0.307V41.9h0.307v0.756h-0.307v0.475h0.307v0.756h-0.307v0.6h0.599
		v-0.276h0.755v0.276h0.475v-0.276h0.755v0.276h0.473v-0.276h0.757v0.276h0.67v-0.379h0.582c-0.146-1.231-0.68-2.341-1.513-3.174
		c-0.835-0.834-1.943-1.368-3.175-1.513v0.581H75.821z M76.323,41.701c1.134,0.271,2.029,1.151,2.312,2.272h-0.786
		c-0.24-0.705-0.809-1.262-1.525-1.49V41.701z"/>
	<path fill="#EF4323" d="M80.303,44.989h-0.67v0.272h-0.757v-0.272h-0.473v0.272h-0.755v-0.272h-0.475v0.272h-0.755v-0.272h-0.599
		v0.6h0.307v0.755h-0.307v0.475h0.307v0.754h-0.307v0.476h0.307v0.755h-0.307v0.611h0.377v0.64c1.231-0.145,2.34-0.678,3.175-1.513
		c0.833-0.833,1.367-1.941,1.513-3.174h-0.582V44.989z M76.323,47.751V46.97c0.715-0.227,1.281-0.781,1.523-1.484h0.786
		C78.349,46.606,77.455,47.483,76.323,47.751z"/>
	<path fill="#EF4323" d="M70.831,44.107v0.379h0.67v-0.276h0.758v0.276h0.473v-0.276h0.756v0.276h0.473v-0.276h0.756v0.276h0.6v-0.6
		h-0.299V43.13h0.299v-0.475h-0.299V41.9h0.299v-0.473h-0.299v-0.755h0.299v-0.67h-0.378V39.42
		c-1.231,0.145-2.341,0.679-3.175,1.513c-0.833,0.833-1.367,1.942-1.513,3.174H70.831z M74.812,41.716v0.787
		c-0.693,0.238-1.24,0.785-1.473,1.475h-0.787C72.829,42.872,73.702,42.001,74.812,41.716z"/>
	<path fill="#EF4323" d="M71.09,37.45h-5.837c-0.656,0-1.252,0.267-1.688,0.703c-0.437,0.438-0.704,1.032-0.704,1.689V50.26
		c0,0.657,0.268,1.251,0.704,1.689c0.437,0.437,1.032,0.704,1.688,0.704h20.651c0.657,0,1.253-0.269,1.689-0.704
		c0.438-0.438,0.703-1.032,0.703-1.689V39.842c0-0.657-0.267-1.251-0.703-1.689c-0.437-0.436-1.032-0.703-1.689-0.703h-5.869v-0.107
		h-0.082c0.002-0.311-0.105-0.716-0.305-1.068c-0.196-0.354-0.476-0.646-0.733-0.792c-0.175-0.1-0.328-0.141-0.475-0.141h-5.725
		c-0.11,0-0.223,0.023-0.346,0.076c-0.123,0.054-0.258,0.14-0.388,0.256c-0.263,0.231-0.505,0.592-0.642,0.965
		c-0.091,0.248-0.137,0.497-0.135,0.704H71.09V37.45z M83.543,39.243c0.274-0.246,0.646-0.39,1.046-0.391h0.851
		c0.398,0.001,0.768,0.146,1.045,0.392c0.277,0.244,0.465,0.605,0.465,1.01c0,0.403-0.188,0.765-0.465,1.01
		c-0.277,0.246-0.646,0.391-1.045,0.391h-0.851c-0.399,0-0.771-0.145-1.046-0.391c-0.277-0.245-0.467-0.606-0.466-1.01
		C83.076,39.849,83.266,39.488,83.543,39.243z M74.938,38.129v-0.505h1.26v0.505c3.163,0.298,5.679,2.813,5.978,5.978h0.59v1.26
		h-0.59c-0.298,3.164-2.814,5.68-5.978,5.978v0.446h-1.26v-0.446c-3.165-0.298-5.681-2.814-5.979-5.978h-0.565v-1.26h0.565
		C69.258,40.942,71.774,38.427,74.938,38.129z"/>
	<path fill="#EF4323" d="M62.589,11.318h0.851c0.153,0,0.288-0.057,0.376-0.136c0.088-0.081,0.127-0.168,0.127-0.257
		c0-0.089-0.039-0.177-0.127-0.257c-0.089-0.079-0.223-0.137-0.376-0.136h-0.851c-0.154,0-0.289,0.057-0.377,0.136
		c-0.089,0.081-0.128,0.168-0.128,0.257c0,0.089,0.039,0.176,0.128,0.257C62.301,11.261,62.435,11.319,62.589,11.318z"/>
	<path fill="#EF4323" d="M63.716,71.989h-0.67v0.272h-0.757v-0.272h-0.473v0.272h-0.755v-0.272h-0.475v0.272h-0.755v-0.272h-0.599
		v0.6h0.307v0.755h-0.307v0.475h0.307v0.754h-0.307v0.476h0.307v0.755h-0.307v0.611h0.377v0.64c1.231-0.145,2.34-0.678,3.175-1.513
		c0.833-0.833,1.367-1.941,1.513-3.174h-0.582V71.989z M59.737,74.751V73.97c0.715-0.227,1.281-0.781,1.523-1.484h0.786
		C61.762,73.606,60.868,74.483,59.737,74.751z"/>
	<path fill="#EF4323" d="M75.316,49.413v-0.611h-0.299v-0.755h0.299v-0.476h-0.299v-0.754h0.299v-0.475h-0.299v-0.755h0.299v-0.6
		h-0.6v0.272H73.96v-0.272h-0.473v0.272h-0.756v-0.272h-0.473v0.272h-0.758v-0.272h-0.67v0.378H70.25
		c0.145,1.232,0.68,2.34,1.513,3.174c0.835,0.835,1.943,1.368,3.175,1.513v-0.64H75.316z M74.812,47.738
		c-1.105-0.283-1.975-1.148-2.255-2.248h0.787c0.237,0.682,0.781,1.223,1.468,1.461V47.738z"/>
	<path fill="#EF4323" d="M68.853,66.86h-0.851c-0.154-0.001-0.289,0.058-0.377,0.136c-0.089,0.081-0.128,0.168-0.128,0.258
		c0,0.089,0.039,0.176,0.128,0.258c0.089,0.078,0.223,0.136,0.377,0.135h0.851c0.153,0.001,0.288-0.057,0.376-0.135
		c0.088-0.081,0.127-0.169,0.127-0.258c0-0.09-0.039-0.177-0.127-0.258C69.14,66.917,69.006,66.859,68.853,66.86z"/>
	<path fill="#EF4323" d="M69.318,64.45h-5.869v-0.107h-0.082c0.002-0.311-0.105-0.716-0.305-1.068
		c-0.196-0.354-0.476-0.645-0.733-0.791c-0.175-0.1-0.328-0.141-0.475-0.141h-5.725c-0.11,0-0.223,0.023-0.346,0.076
		s-0.258,0.139-0.388,0.256c-0.263,0.231-0.505,0.592-0.642,0.965c-0.091,0.248-0.137,0.497-0.135,0.703h-0.116v0.107h-5.837
		c-0.656,0-1.252,0.267-1.688,0.703c-0.437,0.438-0.704,1.031-0.704,1.688V77.26c0,0.657,0.268,1.251,0.704,1.689
		c0.437,0.437,1.032,0.704,1.688,0.704h20.651c0.657,0,1.253-0.269,1.689-0.704c0.438-0.438,0.703-1.032,0.703-1.689V66.842
		c0-0.657-0.267-1.251-0.703-1.688C70.571,64.717,69.975,64.45,69.318,64.45z M66.178,72.366h-0.59
		c-0.298,3.164-2.814,5.68-5.978,5.978v0.446h-1.26v-0.445c-3.165-0.299-5.681-2.814-5.979-5.979h-0.565v-1.26h0.565
		c0.299-3.165,2.814-5.68,5.979-5.979v-0.504h1.26v0.505c3.163,0.298,5.679,2.813,5.978,5.978h0.59V72.366z M69.898,68.263
		c-0.277,0.246-0.646,0.391-1.045,0.391h-0.851c-0.399,0-0.771-0.145-1.046-0.391c-0.277-0.244-0.467-0.606-0.466-1.01
		c-0.001-0.404,0.188-0.766,0.466-1.01c0.274-0.246,0.646-0.391,1.046-0.392h0.851c0.398,0.001,0.768,0.146,1.045,0.392
		c0.277,0.244,0.465,0.605,0.465,1.01C70.363,67.656,70.174,68.019,69.898,68.263z"/>
	<path fill="#EF4323" d="M84.589,40.646h0.851c0.153,0,0.288-0.057,0.376-0.136c0.088-0.081,0.127-0.168,0.127-0.257
		c0-0.089-0.039-0.177-0.127-0.257c-0.089-0.079-0.223-0.137-0.376-0.136h-0.851c-0.154,0-0.289,0.057-0.377,0.136
		c-0.089,0.081-0.128,0.168-0.128,0.257c0,0.089,0.039,0.176,0.128,0.257C84.301,40.59,84.435,40.647,84.589,40.646z"/>
	<path fill="#EF4323" d="M43.254,23.325h20.651c0.657,0,1.253-0.268,1.689-0.704c0.438-0.438,0.703-1.032,0.703-1.689V10.514
		c0-0.657-0.267-1.251-0.703-1.689c-0.437-0.436-1.032-0.703-1.689-0.703h-5.869V8.015h-0.082c0.002-0.311-0.105-0.716-0.305-1.068
		c-0.196-0.354-0.476-0.646-0.733-0.792c-0.175-0.1-0.328-0.141-0.475-0.141h-5.725c-0.11,0-0.222,0.023-0.346,0.076
		c-0.123,0.054-0.257,0.14-0.387,0.256c-0.262,0.231-0.505,0.592-0.641,0.965c-0.091,0.248-0.137,0.497-0.136,0.704H49.09v0.107
		h-5.836c-0.657,0-1.252,0.267-1.689,0.703c-0.437,0.438-0.704,1.032-0.704,1.689v10.418c0,0.658,0.268,1.251,0.704,1.689
		C42.002,23.057,42.596,23.325,43.254,23.325z M61.543,9.915c0.274-0.246,0.646-0.39,1.046-0.391h0.851
		c0.398,0.001,0.768,0.146,1.045,0.392c0.277,0.244,0.465,0.605,0.465,1.01c0,0.403-0.188,0.765-0.465,1.01
		c-0.277,0.246-0.646,0.39-1.045,0.391h-0.851c-0.399-0.001-0.771-0.145-1.046-0.391c-0.277-0.245-0.467-0.606-0.466-1.01
		C61.076,10.521,61.266,10.159,61.543,9.915z M46.394,14.779h0.565c0.299-3.165,2.814-5.68,5.979-5.978V8.296h1.26v0.505
		c3.163,0.298,5.679,2.813,5.978,5.978h0.59v1.259h-0.59c-0.298,3.165-2.814,5.68-5.978,5.978v0.447h-1.26v-0.447
		c-3.165-0.298-5.681-2.813-5.979-5.978h-0.565V14.779z"/>
	<path fill="#EF4323" d="M53.315,20.085v-0.611h-0.298v-0.755h0.298v-0.475h-0.298v-0.755h0.298v-0.475h-0.298V16.26h0.298v-0.6
		h-0.599v0.273h-0.755V15.66h-0.474v0.273h-0.756V15.66h-0.473v0.273h-0.757V15.66h-0.67v0.377H48.25
		c0.145,1.232,0.679,2.341,1.512,3.175c0.835,0.834,1.944,1.368,3.175,1.513v-0.641H53.315z M52.812,18.41
		c-1.105-0.283-1.974-1.149-2.255-2.249h0.787c0.237,0.682,0.781,1.224,1.468,1.462V18.41z"/>
	<path fill="#EF4323" d="M49.574,40.686h0.851c0.153,0,0.288-0.057,0.376-0.136c0.088-0.081,0.127-0.168,0.127-0.257
		c0-0.089-0.039-0.177-0.127-0.257c-0.089-0.079-0.223-0.137-0.376-0.136h-0.851c-0.154,0-0.289,0.057-0.377,0.136
		c-0.089,0.081-0.128,0.168-0.128,0.257c0,0.089,0.039,0.176,0.128,0.257C49.286,40.629,49.42,40.686,49.574,40.686z"/>
	<path fill="#EF4323" d="M40.3,49.452v-0.611h-0.298v-0.754H40.3v-0.476h-0.298v-0.755H40.3v-0.475h-0.298v-0.754H40.3v-0.6h-0.599
		v0.272h-0.755v-0.272h-0.475v0.272h-0.756v-0.272h-0.473v0.272h-0.756v-0.272h-0.671v0.377h-0.581
		c0.145,1.232,0.678,2.341,1.512,3.175c0.835,0.834,1.944,1.368,3.176,1.513v-0.641H40.3z M39.797,47.778
		c-1.105-0.283-1.974-1.149-2.255-2.249h0.787c0.236,0.682,0.781,1.224,1.468,1.462V47.778z"/>
	<path fill="#EF4323" d="M40.806,40.04v0.67h0.307v0.755h-0.307v0.474h0.307v0.755h-0.307v0.475h0.307v0.756h-0.307v0.6h0.599
		v-0.275h0.755v0.275h0.475v-0.275h0.755v0.275h0.474v-0.275h0.756v0.275h0.67v-0.379h0.582c-0.146-1.231-0.68-2.341-1.513-3.174
		c-0.835-0.834-1.944-1.368-3.175-1.513v0.581H40.806z M41.308,41.741c1.135,0.27,2.031,1.15,2.313,2.272h-0.785
		c-0.24-0.705-0.81-1.263-1.527-1.491V41.741z"/>
	<path fill="#EF4323" d="M45.288,45.029h-0.67v0.272h-0.756v-0.272h-0.474v0.272h-0.755v-0.272h-0.475v0.272h-0.755v-0.272h-0.599
		v0.6h0.307v0.754h-0.307v0.475h0.307v0.755h-0.307v0.476h0.307v0.754h-0.307v0.611h0.377v0.641c1.231-0.145,2.34-0.679,3.175-1.513
		c0.833-0.833,1.367-1.942,1.513-3.175h-0.582V45.029z M41.308,47.791v-0.782c0.716-0.227,1.281-0.781,1.523-1.483h0.787
		C43.335,46.646,42.441,47.523,41.308,47.791z"/>
	<path fill="#EF4323" d="M53.821,10.673v0.67h0.307v0.755h-0.307v0.474h0.307v0.755h-0.307v0.474h0.307v0.756h-0.307v0.6h0.599
		v-0.276h0.755v0.276h0.475v-0.276h0.755v0.276h0.473v-0.276h0.757v0.276h0.67v-0.378h0.582c-0.146-1.232-0.68-2.341-1.513-3.174
		c-0.835-0.834-1.943-1.368-3.175-1.513v0.581H53.821z M54.323,12.373c1.134,0.27,2.029,1.151,2.312,2.273h-0.786
		c-0.24-0.705-0.809-1.263-1.525-1.491V12.373z"/>
	<path fill="#EF4323" d="M58.303,15.66h-0.67v0.273h-0.757V15.66h-0.473v0.273h-0.755V15.66h-0.475v0.273h-0.755V15.66h-0.599v0.6
		h0.307v0.754h-0.307v0.475h0.307v0.755h-0.307v0.475h0.307v0.755h-0.307v0.611h0.377v0.641c1.231-0.145,2.34-0.678,3.175-1.513
		c0.833-0.833,1.367-1.942,1.513-3.175h-0.582V15.66z M54.323,18.424v-0.782c0.715-0.227,1.281-0.782,1.523-1.484h0.786
		C56.349,17.278,55.455,18.155,54.323,18.424z"/>
	<path fill="#EF4323" d="M48.831,15.157h0.67v-0.276h0.757v0.276h0.473v-0.276h0.756v0.276h0.474v-0.276h0.755v0.276h0.599v-0.6
		h-0.298v-0.756h0.298v-0.474h-0.298v-0.755h0.298v-0.474h-0.298v-0.755h0.298v-0.67h-0.377v-0.581
		c-1.231,0.145-2.341,0.679-3.175,1.513c-0.833,0.833-1.367,1.942-1.512,3.174h0.581V15.157z M52.812,12.387v0.787
		c-0.693,0.239-1.24,0.786-1.473,1.475l-0.787,0C50.829,13.544,51.702,12.673,52.812,12.387z"/>
	<path fill="#EF4323" d="M58.729,76.413v-0.611H58.43v-0.755h0.299v-0.476H58.43v-0.754h0.299v-0.475H58.43v-0.755h0.299v-0.6h-0.6
		v0.272h-0.756v-0.272h-0.473v0.272h-0.756v-0.272h-0.473v0.272h-0.758v-0.272h-0.67v0.378h-0.581
		c0.145,1.232,0.68,2.341,1.513,3.174c0.835,0.835,1.943,1.368,3.175,1.513v-0.64H58.729z M58.225,74.738
		c-1.105-0.283-1.975-1.148-2.255-2.248h0.787c0.237,0.682,0.781,1.223,1.468,1.461V74.738z"/>
	<path fill="#EF4323" d="M33.838,66.9h-0.851c-0.154-0.001-0.289,0.057-0.377,0.136c-0.089,0.081-0.128,0.168-0.128,0.257
		c0,0.09,0.039,0.177,0.128,0.258c0.089,0.079,0.223,0.137,0.377,0.136h0.851c0.153,0.001,0.288-0.057,0.376-0.136
		c0.088-0.08,0.127-0.168,0.127-0.258c0-0.089-0.039-0.176-0.127-0.257C34.125,66.956,33.991,66.899,33.838,66.9z"/>
	<path fill="#EF4323" d="M99.071,38.166c-0.437,0.438-0.704,1.032-0.704,1.689v10.417c0,0.658,0.268,1.252,0.704,1.689
		c0.437,0.437,1.032,0.704,1.688,0.704h5.211c-0.008-1.313-0.073-2.611-0.175-3.899c-0.731-0.959-1.211-2.12-1.33-3.388H103.9V44.12
		h0.565c0.06-0.634,0.211-1.24,0.437-1.809c-0.337-1.646-0.755-3.262-1.24-4.848h-2.902C100.103,37.464,99.507,37.73,99.071,38.166z
		"/>
	<path fill="#EF4323" d="M103.131,67.009c-0.089,0.08-0.128,0.168-0.128,0.258c0,0.088,0.039,0.176,0.128,0.257
		c0.089,0.079,0.223,0.136,0.377,0.136h0.396c0.075-0.262,0.151-0.523,0.224-0.787h-0.62
		C103.354,66.872,103.219,66.93,103.131,67.009z"/>
	<path fill="#EF4323" d="M87.444,20.739v-0.641h0.378v-0.611h-0.299v-0.755h0.299v-0.475h-0.299v-0.755h0.299v-0.475h-0.299v-0.754
		h0.299v-0.6h-0.6v0.273h-0.756v-0.273h-0.473v0.273h-0.756v-0.273h-0.473v0.273h-0.758v-0.273h-0.67v0.377h-0.581
		c0.145,1.232,0.68,2.341,1.513,3.175C85.104,20.06,86.212,20.594,87.444,20.739z M85.85,16.174
		c0.237,0.682,0.781,1.224,1.468,1.462v0.787c-1.105-0.283-1.975-1.149-2.255-2.249H85.85z"/>
	<path fill="#EF4323" d="M82.484,65.166c-0.437,0.438-0.704,1.032-0.704,1.688v10.418c0,0.658,0.268,1.252,0.704,1.689
		c0.437,0.437,1.032,0.704,1.688,0.704h14.594c2.01-3.44,3.652-7.121,4.853-10.999h-0.11c-0.399-0.001-0.771-0.145-1.046-0.391
		c-0.277-0.245-0.467-0.607-0.466-1.01c-0.001-0.404,0.188-0.766,0.466-1.011c0.274-0.245,0.646-0.39,1.046-0.392h0.851
		c0.012,0,0.022,0.006,0.034,0.006c0.116-0.465,0.221-0.936,0.325-1.406h-5.764v-0.107h-0.082c0.002-0.311-0.105-0.717-0.305-1.068
		c-0.196-0.354-0.476-0.646-0.733-0.791c-0.175-0.1-0.328-0.141-0.475-0.142h-5.725c-0.11,0-0.223,0.023-0.346,0.076
		c-0.123,0.054-0.258,0.14-0.388,0.257c-0.263,0.23-0.505,0.592-0.642,0.965c-0.091,0.247-0.137,0.496-0.135,0.703h-0.116v0.107
		h-5.837C83.516,64.464,82.92,64.73,82.484,65.166z M87.313,71.12h0.565c0.298-3.165,2.813-5.681,5.979-5.979v-0.504h1.26v0.505
		c3.163,0.298,5.68,2.813,5.978,5.978h0.59v1.259h-0.59c-0.298,3.164-2.814,5.68-5.978,5.978v0.447h-1.26v-0.447
		c-3.165-0.297-5.681-2.813-5.979-5.978h-0.565V71.12z"/>
	<path fill="#EF4323" d="M83.337,14.792v0.378h0.67v-0.276h0.758v0.276h0.473v-0.276h0.756v0.276h0.473v-0.276h0.756v0.276h0.6v-0.6
		h-0.299v-0.756h0.299v-0.474h-0.299v-0.523c-0.068-0.059-0.136-0.119-0.205-0.178v0.548c-0.693,0.239-1.24,0.786-1.473,1.475
		l-0.787,0c0.261-1.04,1.057-1.854,2.072-2.187c-0.641-0.54-1.294-1.064-1.959-1.574c-0.324,0.208-0.63,0.443-0.902,0.715
		c-0.833,0.833-1.367,1.942-1.513,3.174H83.337z"/>
	<path fill="#EF4323" d="M90.091,15.17c-0.576-0.565-1.163-1.118-1.765-1.657v0.301h0.307v0.756h-0.307v0.6h0.599v-0.276h0.755
		v0.276H90.091z"/>
	<path fill="#EF4323" d="M94.235,76.426v-0.61h-0.299V75.06h0.299v-0.475h-0.299V73.83h0.299v-0.475h-0.299v-0.755h0.299v-0.6h-0.6
		v0.273h-0.756v-0.273h-0.473v0.273h-0.756v-0.273h-0.473v0.273H90.42v-0.273h-0.67v0.378h-0.581
		c0.145,1.232,0.68,2.342,1.513,3.175c0.835,0.835,1.943,1.368,3.175,1.513v-0.641H94.235z M93.731,74.751
		c-1.105-0.283-1.975-1.149-2.255-2.249h0.787c0.237,0.683,0.781,1.224,1.468,1.462V74.751z"/>
	<path fill="#EF4323" d="M89.75,71.498h0.67v-0.276h0.758v0.276h0.473v-0.276h0.756v0.276h0.473v-0.276h0.756v0.276h0.6v-0.6h-0.299
		v-0.756h0.299v-0.474h-0.299v-0.756h0.299V68.44h-0.299v-0.755h0.299v-0.671h-0.378v-0.581c-1.231,0.146-2.341,0.679-3.175,1.513
		c-0.833,0.833-1.368,1.942-1.513,3.175h0.581V71.498z M93.731,68.729v0.787c-0.693,0.239-1.24,0.786-1.473,1.476h-0.787
		C91.748,69.886,92.621,69.014,93.731,68.729z"/>
	<path fill="#EF4323" d="M99.222,72.001h-0.67v0.273h-0.757v-0.273h-0.473v0.273h-0.755v-0.273h-0.475v0.273h-0.755v-0.273H94.74
		v0.6h0.307v0.755H94.74v0.475h0.307v0.755H94.74v0.475h0.307v0.756H94.74v0.61h0.377v0.641c1.231-0.145,2.34-0.678,3.175-1.513
		c0.833-0.833,1.367-1.942,1.513-3.175h-0.582V72.001z M95.242,74.765v-0.781c0.715-0.228,1.281-0.782,1.523-1.484h0.786
		C97.268,73.618,96.374,74.495,95.242,74.765z"/>
	<path fill="#EF4323" d="M94.74,67.014v0.671h0.307v0.755H94.74v0.474h0.307v0.756H94.74v0.474h0.307v0.756H94.74v0.6h0.599v-0.276
		h0.755v0.276h0.475v-0.276h0.755v0.276h0.473v-0.276h0.757v0.276h0.67V71.12h0.582c-0.146-1.231-0.68-2.341-1.513-3.175
		c-0.835-0.834-1.943-1.367-3.175-1.513v0.581H94.74z M95.242,68.714c1.134,0.271,2.029,1.151,2.312,2.273h-0.786
		c-0.24-0.705-0.809-1.263-1.525-1.491V68.714z"/>
	<path fill="#EF4323" d="M54.244,71.486h0.67v-0.276h0.758v0.276h0.473v-0.276h0.756v0.276h0.473v-0.276h0.756v0.276h0.6v-0.6H58.43
		V70.13h0.299v-0.475H58.43V68.9h0.299v-0.473H58.43v-0.756h0.299v-0.67h-0.378V66.42c-1.231,0.145-2.341,0.678-3.175,1.513
		c-0.833,0.833-1.367,1.941-1.513,3.174h0.581V71.486z M58.225,68.716v0.787c-0.693,0.238-1.24,0.785-1.473,1.475h-0.787
		C56.242,69.872,57.115,69.001,58.225,68.716z"/>
	<path fill="#EF4323" d="M34.303,64.49h-5.869v-0.106h-0.082c0.002-0.311-0.105-0.716-0.305-1.068
		c-0.196-0.354-0.476-0.646-0.733-0.792c-0.175-0.1-0.327-0.141-0.474-0.141h-5.726c-0.11,0-0.222,0.023-0.347,0.076
		c-0.123,0.054-0.257,0.14-0.387,0.256c-0.262,0.232-0.505,0.593-0.641,0.965c-0.092,0.248-0.137,0.498-0.137,0.704h-0.115v0.106
		h-5.836c-0.657,0-1.252,0.268-1.689,0.703c-0.437,0.438-0.704,1.032-0.704,1.689V77.3c0,0.657,0.268,1.251,0.704,1.689
		c0.437,0.436,1.032,0.703,1.689,0.703h20.651c0.657,0,1.253-0.268,1.689-0.703c0.438-0.438,0.703-1.032,0.703-1.689V66.882
		c0-0.657-0.267-1.252-0.703-1.689C35.556,64.757,34.96,64.49,34.303,64.49z M31.163,72.406h-0.589
		c-0.298,3.165-2.814,5.68-5.978,5.978v0.447h-1.26v-0.446c-3.164-0.299-5.681-2.813-5.978-5.979h-0.566v-1.26h0.566
		c0.298-3.164,2.814-5.68,5.978-5.977v-0.506h1.26v0.506c3.164,0.298,5.679,2.813,5.978,5.977h0.59V72.406z M34.883,68.302
		c-0.277,0.246-0.646,0.391-1.045,0.392h-0.851c-0.399-0.001-0.771-0.146-1.046-0.392c-0.277-0.244-0.467-0.605-0.466-1.01
		c-0.001-0.404,0.188-0.766,0.466-1.01c0.274-0.246,0.646-0.391,1.046-0.391h0.851c0.398,0,0.768,0.145,1.045,0.391
		c0.277,0.244,0.465,0.605,0.465,1.01S35.159,68.058,34.883,68.302z"/>
	<path fill="#EF4323" d="M28.701,72.029h-0.67v0.272h-0.756v-0.272h-0.474v0.272h-0.755v-0.272h-0.475v0.272h-0.755v-0.272h-0.599
		v0.6h0.307v0.754h-0.307v0.475h0.307v0.755h-0.307v0.476h0.307v0.754h-0.307v0.611h0.377v0.641c1.231-0.145,2.34-0.679,3.175-1.513
		c0.833-0.833,1.367-1.942,1.513-3.175h-0.582V72.029z M24.721,74.791v-0.782c0.716-0.227,1.281-0.781,1.523-1.483h0.787
		C26.748,73.646,25.854,74.523,24.721,74.791z"/>
	<path fill="#EF4323" d="M35.817,44.146v0.379h0.671v-0.275h0.756v0.275h0.473v-0.275h0.756v0.275h0.475v-0.275h0.755v0.275H40.3
		v-0.6h-0.298v-0.756H40.3v-0.475h-0.298V41.94H40.3v-0.474h-0.298v-0.755H40.3v-0.67h-0.377v-0.581
		c-1.231,0.145-2.341,0.679-3.176,1.513c-0.832,0.833-1.366,1.942-1.512,3.174H35.817z M39.797,41.755v0.787
		c-0.692,0.239-1.239,0.785-1.474,1.475l-0.786,0.001C37.815,42.911,38.688,42.04,39.797,41.755z"/>
	<path fill="#EF4323" d="M59.234,67.001v0.67h0.307v0.756h-0.307V68.9h0.307v0.756h-0.307v0.475h0.307v0.756h-0.307v0.6h0.599
		v-0.276h0.755v0.276h0.475v-0.276h0.755v0.276h0.473v-0.276h0.757v0.276h0.67v-0.379h0.582c-0.146-1.231-0.68-2.341-1.513-3.174
		c-0.835-0.835-1.943-1.368-3.175-1.513v0.581H59.234z M59.737,68.701c1.134,0.271,2.029,1.151,2.312,2.272h-0.786
		c-0.24-0.705-0.809-1.262-1.525-1.49V68.701z"/>
	<path fill="#EF4323" d="M24.219,67.04v0.67h0.307v0.756h-0.307v0.474h0.307v0.755h-0.307v0.475h0.307v0.756h-0.307v0.6h0.599
		v-0.275h0.755v0.275h0.475v-0.275h0.755v0.275h0.474v-0.275h0.756v0.275h0.67v-0.379h0.582c-0.146-1.231-0.68-2.341-1.513-3.174
		c-0.835-0.834-1.944-1.368-3.175-1.513v0.581H24.219z M24.721,68.741c1.135,0.27,2.031,1.15,2.313,2.272h-0.785
		c-0.24-0.705-0.81-1.263-1.527-1.491V68.741z"/>
	<path fill="#EF4323" d="M76.071,8.838c-0.437,0.438-0.704,1.032-0.704,1.689v10.418c0,0.658,0.268,1.251,0.704,1.689
		c0.437,0.436,1.032,0.704,1.688,0.704h19.152c-1.014-1.498-2.105-2.937-3.263-4.319c-1.075,1.663-2.869,2.814-4.945,3.01v0.447
		h-1.26v-0.447c-3.165-0.298-5.681-2.813-5.979-5.978H80.9v-1.259h0.565c0.181-1.917,1.179-3.591,2.639-4.684
		c-0.948-0.689-1.92-1.346-2.914-1.973h-3.431C77.103,8.135,76.507,8.402,76.071,8.838z"/>
	<path fill="#EF4323" d="M23.713,76.452v-0.611h-0.298v-0.754h0.298v-0.476h-0.298v-0.755h0.298v-0.475h-0.298v-0.754h0.298v-0.6
		h-0.599v0.272H22.36v-0.272h-0.475v0.272h-0.756v-0.272h-0.473v0.272h-0.756v-0.272H19.23v0.377h-0.581
		c0.145,1.232,0.678,2.342,1.512,3.175c0.835,0.834,1.944,1.368,3.176,1.513v-0.641H23.713z M23.21,74.778
		c-1.105-0.283-1.974-1.149-2.255-2.249h0.787c0.236,0.682,0.781,1.224,1.468,1.462V74.778z"/>
	<path fill="#EF4323" d="M91.878,19.226c0.357-0.358,0.645-0.778,0.89-1.224c-0.534-0.607-1.083-1.202-1.645-1.784
		c-0.297,1.097-1.179,1.954-2.294,2.219v-0.782c0.715-0.227,1.281-0.782,1.523-1.484h0.726c-0.071-0.074-0.142-0.151-0.214-0.225
		h-0.71v-0.273H89.68v0.273h-0.755v-0.273h-0.599v0.6h0.307v0.754h-0.307v0.475h0.307v0.755h-0.307v0.475h0.307v0.755h-0.307v0.611
		h0.377v0.641C89.935,20.594,91.043,20.06,91.878,19.226z"/>
	<path fill="#EF4323" d="M19.23,71.525h0.671v-0.275h0.756v0.275h0.473v-0.275h0.756v0.275h0.475v-0.275h0.755v0.275h0.599v-0.6
		h-0.298v-0.756h0.298v-0.475h-0.298V68.94h0.298v-0.474h-0.298V67.71h0.298v-0.67h-0.377v-0.581
		c-1.231,0.145-2.341,0.679-3.176,1.513c-0.832,0.833-1.366,1.942-1.512,3.174h0.581V71.525z M23.21,68.755v0.787
		c-0.692,0.239-1.239,0.785-1.474,1.475l-0.786,0.001C21.228,69.911,22.101,69.04,23.21,68.755z"/>
	<path fill="#EF4323" d="M74.185,95.464c-0.833,0.833-1.367,1.942-1.513,3.175h0.581v0.378h0.67V98.74h0.758v0.276h0.473V98.74
		h0.756v0.276h0.473V98.74h0.756v0.276h0.6v-0.6h-0.299v-0.756h0.299v-0.474h-0.299v-0.756h0.299v-0.474h-0.299v-0.755h0.299v-0.671
		h-0.377v-0.581C76.128,94.097,75.02,94.63,74.185,95.464z M77.234,97.034c-0.693,0.239-1.24,0.786-1.473,1.476h-0.787
		c0.277-1.105,1.15-1.978,2.26-2.263V97.034z"/>
	<path fill="#EF4323" d="M19.496,92.711c-0.437-0.436-1.032-0.703-1.689-0.703h-0.659c0.982,0.902,2.003,1.761,3.051,2.588v-0.195
		C20.199,93.743,19.932,93.149,19.496,92.711z"/>
	<path fill="#EF4323" d="M43.114,93.939v0.581h-0.377v0.67h0.307v0.756h-0.307v0.473h0.307v0.756h-0.307v0.475h0.307v0.756h-0.307
		v0.6h0.599v-0.276h0.755v0.276h0.475v-0.276h0.755v0.276h0.473v-0.276h0.757v0.276h0.67v-0.379h0.582
		c-0.145-1.231-0.679-2.341-1.512-3.174C45.454,94.616,44.345,94.083,43.114,93.939z M44.765,98.492
		c-0.24-0.705-0.809-1.262-1.525-1.49V96.22c1.134,0.271,2.029,1.151,2.312,2.272H44.765z"/>
	<path fill="#EF4323" d="M27.574,11.358h0.851c0.153,0,0.288-0.057,0.376-0.136c0.088-0.081,0.127-0.168,0.127-0.257
		c0-0.089-0.039-0.177-0.127-0.257c-0.089-0.079-0.223-0.137-0.376-0.136h-0.851c-0.154,0-0.289,0.057-0.377,0.136
		c-0.089,0.081-0.128,0.168-0.128,0.257c0,0.089,0.039,0.176,0.128,0.257C27.286,11.301,27.42,11.358,27.574,11.358z"/>
	<path fill="#EF4323" d="M52.357,94.378h-0.852c-0.154-0.001-0.289,0.058-0.377,0.136c-0.088,0.081-0.127,0.168-0.127,0.258
		c0,0.089,0.039,0.176,0.127,0.258c0.09,0.078,0.223,0.136,0.377,0.135h0.852c0.152,0.001,0.287-0.057,0.375-0.135
		c0.088-0.081,0.127-0.169,0.127-0.258c0-0.09-0.039-0.177-0.127-0.258C52.644,94.436,52.509,94.377,52.357,94.378z"/>
	<path fill="#EF4323" d="M1.421,40.82c-0.285,1.211-0.535,2.436-0.735,3.678h0.321v-0.276h0.758v0.276h0.473v-0.276h0.756v0.276
		h0.473v-0.276h0.756v0.276h0.6v-0.6H4.523v-0.756h0.299v-0.474H4.523v-0.756h0.299V41.44H4.523v-0.755h0.299v-0.67H4.444v-0.581
		C3.281,39.57,2.236,40.062,1.421,40.82z M4.318,42.516c-0.693,0.239-1.24,0.786-1.473,1.476H2.058
		c0.277-1.105,1.15-1.978,2.26-2.263V42.516z"/>
	<path fill="#EF4323" d="M14.095,40.659h0.851c0.153,0,0.288-0.057,0.376-0.136c0.088-0.081,0.127-0.168,0.127-0.257
		c0-0.089-0.039-0.177-0.127-0.257c-0.089-0.079-0.223-0.137-0.376-0.136h-0.851c-0.154,0-0.289,0.057-0.377,0.136
		c-0.089,0.081-0.128,0.168-0.128,0.257c0,0.089,0.039,0.176,0.128,0.257C13.807,40.603,13.941,40.66,14.095,40.659z"/>
	<path fill="#EF4323" d="M46.289,103.059c0.833-0.833,1.368-1.941,1.512-3.174h-0.582v-0.378h-0.67v0.272h-0.757v-0.272H45.32v0.272
		h-0.755v-0.272h-0.475v0.272h-0.755v-0.272h-0.599v0.6h0.307v0.755h-0.307v0.475h0.307v0.754h-0.307v0.476h0.307v0.755h-0.307
		v0.611h0.377v0.64C44.345,104.427,45.454,103.894,46.289,103.059z M43.24,101.489c0.715-0.227,1.281-0.781,1.523-1.484h0.786
		c-0.284,1.12-1.178,1.997-2.31,2.266V101.489z"/>
	<path fill="#EF4323" d="M4.444,50.067v-0.641h0.378v-0.61H4.523V48.06h0.299v-0.475H4.523V46.83h0.299v-0.475H4.523v-0.755h0.299
		v-0.6h-0.6v0.273H3.466v-0.273H2.993v0.273H2.238v-0.273H1.765v0.273H1.007v-0.273H0.601C0.49,45.736,0.4,46.476,0.319,47.219
		c0.255,0.489,0.563,0.947,0.95,1.334C2.104,49.389,3.212,49.922,4.444,50.067z M2.85,45.502c0.237,0.683,0.781,1.224,1.468,1.462
		v0.787c-1.105-0.283-1.975-1.149-2.255-2.249H2.85z"/>
	<path fill="#EF4323" d="M75.44,100.986c-0.2-0.294-0.37-0.61-0.46-0.965h0.787c0.082,0.237,0.212,0.448,0.361,0.644
		c0.543-0.264,1.077-0.542,1.609-0.823V99.52h-0.6v0.273h-0.756V99.52h-0.473v0.273h-0.756V99.52h-0.473v0.273h-0.758V99.52h-0.67
		v0.378h-0.581c0.086,0.732,0.313,1.413,0.662,2.023C74.045,101.626,74.745,101.312,75.44,100.986z"/>
	<path fill="#EF4323" d="M8.878,48.554c0.833-0.833,1.367-1.942,1.513-3.175H9.809v-0.378h-0.67v0.273H8.382v-0.273H7.909v0.273
		H7.155v-0.273H6.68v0.273H5.925v-0.273H5.326v0.6h0.307v0.755H5.326v0.475h0.307v0.755H5.326v0.475h0.307v0.756H5.326v0.61h0.377
		v0.641C6.934,49.922,8.043,49.389,8.878,48.554z M5.829,46.984c0.715-0.228,1.281-0.782,1.523-1.484h0.786
		c-0.284,1.119-1.178,1.996-2.31,2.266V46.984z"/>
	<path fill="#EF4323" d="M41.854,104.572v-0.64h0.378v-0.611h-0.299v-0.755h0.299v-0.476h-0.299v-0.754h0.299v-0.475h-0.299v-0.755
		h0.299v-0.6h-0.6v0.272h-0.756v-0.272h-0.473v0.272h-0.756v-0.272h-0.473v0.272h-0.758v-0.272h-0.67v0.378h-0.581
		c0.145,1.231,0.679,2.341,1.513,3.174C39.514,103.894,40.623,104.427,41.854,104.572z M40.26,100.008
		c0.237,0.682,0.781,1.223,1.468,1.461v0.787c-1.105-0.283-1.975-1.148-2.255-2.248H40.26z"/>
	<path fill="#EF4323" d="M38.679,95.451c-0.833,0.833-1.368,1.941-1.513,3.174h0.581v0.379h0.67v-0.276h0.758v0.276h0.473v-0.276
		h0.756v0.276h0.473v-0.276h0.756v0.276h0.6v-0.6h-0.299v-0.756h0.299v-0.475h-0.299v-0.756h0.299v-0.473h-0.299V95.19h0.299v-0.67
		h-0.378v-0.581C40.622,94.083,39.513,94.616,38.679,95.451z M41.728,97.022c-0.693,0.238-1.24,0.785-1.473,1.475h-0.787
		c0.277-1.105,1.15-1.977,2.26-2.262V97.022z"/>
	<path fill="#EF4323" d="M21.052,10.71c-0.766,0.58-1.513,1.184-2.246,1.803v0.099h0.307v0.755h-0.307v0.474h0.307v0.756h-0.307v0.6
		h0.599v-0.276h0.755v0.276h0.475v-0.276h0.755v0.276h0.473v-0.276h0.756v0.276h0.67v-0.378h0.582
		c-0.146-1.232-0.68-2.341-1.513-3.174C21.978,11.264,21.529,10.963,21.052,10.71z M20.835,14.686
		c-0.24-0.705-0.809-1.263-1.526-1.491v-0.782c1.134,0.27,2.03,1.151,2.312,2.273H20.835z"/>
	<path fill="#EF4323" d="M5.703,39.433v0.581H5.326v0.67h0.307v0.755H5.326v0.474h0.307v0.756H5.326v0.474h0.307v0.756H5.326v0.6
		h0.599v-0.276H6.68v0.276h0.475v-0.276h0.755v0.276h0.473v-0.276h0.757v0.276h0.67V44.12h0.582
		c-0.146-1.232-0.68-2.341-1.513-3.175C8.043,40.112,6.934,39.578,5.703,39.433z M7.355,43.988c-0.24-0.705-0.809-1.263-1.525-1.491
		v-0.782c1.134,0.271,2.029,1.151,2.312,2.273H7.355z"/>
	<path fill="#EF4323" d="M65.988,92.685c-0.438,0.438-0.705,1.032-0.705,1.688v10.152c2.349-0.558,4.635-1.271,6.851-2.13
		c-0.405-0.758-0.667-1.602-0.752-2.498h-0.565v-1.259h0.565c0.299-3.166,2.814-5.681,5.979-5.978v-0.505h1.26v0.505
		c2.241,0.211,4.157,1.534,5.19,3.415c0.572-0.411,1.137-0.831,1.691-1.264c0-0.01-0.003-0.018-0.003-0.027
		c0-0.404,0.189-0.766,0.467-1.011c0.273-0.245,0.646-0.39,1.045-0.392h0.253c0.521-0.442,1.038-0.89,1.542-1.353
		c-0.154-0.031-0.314-0.048-0.479-0.048h-5.869v-0.107h-0.082c0.002-0.311-0.105-0.717-0.305-1.068
		c-0.197-0.354-0.477-0.646-0.734-0.791c-0.174-0.1-0.328-0.141-0.475-0.142h-5.725c-0.109,0-0.223,0.023-0.346,0.076
		c-0.123,0.054-0.258,0.14-0.387,0.257c-0.264,0.23-0.506,0.592-0.643,0.965c-0.09,0.247-0.137,0.496-0.135,0.703h-0.115v0.107
		h-5.838C67.019,91.983,66.423,92.248,65.988,92.685z"/>
	<path fill="#EF4323" d="M9.459,37.357c0.002-0.311-0.105-0.716-0.305-1.068c-0.196-0.354-0.476-0.646-0.733-0.792
		c-0.175-0.1-0.328-0.141-0.475-0.141H3.017c-0.412,1.167-0.781,2.354-1.112,3.558c0.767-0.417,1.626-0.685,2.539-0.771v-0.505h1.26
		v0.505c3.163,0.298,5.679,2.813,5.978,5.978h0.589v1.259h-0.589c-0.298,3.164-2.815,5.68-5.978,5.978v0.447h-1.26v-0.447
		c-1.701-0.16-3.21-0.964-4.293-2.163c-0.081,1.148-0.135,2.304-0.142,3.472H15.41c0.657,0,1.253-0.269,1.689-0.704
		c0.438-0.438,0.703-1.031,0.703-1.689V39.855c0-0.657-0.267-1.251-0.703-1.689c-0.437-0.436-1.032-0.703-1.689-0.703H9.541v-0.107
		H9.459z M13.049,39.256c0.274-0.246,0.646-0.39,1.046-0.391h0.851c0.398,0.001,0.768,0.146,1.045,0.392
		c0.277,0.244,0.465,0.605,0.465,1.01c0,0.403-0.188,0.765-0.465,1.01c-0.277,0.247-0.646,0.39-1.045,0.391h-0.851
		c-0.399-0.001-0.771-0.145-1.046-0.391c-0.277-0.245-0.467-0.606-0.466-1.01C12.582,39.862,12.772,39.501,13.049,39.256z"/>
	<path fill="#EF4323" d="M18.301,13.841v-0.474h-0.298v-0.158c-0.632,0.556-1.25,1.126-1.854,1.711h0.324v0.276h0.474v-0.276h0.755
		v0.276h0.599v-0.6h-0.298v-0.756H18.301z"/>
	<path fill="#EF4323" d="M22.358,19.252c0.833-0.833,1.367-1.942,1.513-3.175h-0.582V15.7h-0.67v0.273h-0.756V15.7h-0.473v0.273
		h-0.755V15.7h-0.475v0.273h-0.755V15.7h-0.599v0.6h0.307v0.754h-0.307v0.475h0.307v0.755h-0.307v0.475h0.307v0.755h-0.307v0.611
		h0.377v0.641C20.414,20.62,21.523,20.087,22.358,19.252z M19.308,17.681c0.715-0.227,1.281-0.782,1.523-1.484h0.787
		c-0.284,1.12-1.178,1.997-2.31,2.266V17.681z"/>
	<path fill="#EF4323" d="M78.243,99.581c0.036-0.02,0.071-0.042,0.107-0.062h-0.107V99.581z"/>
	<path fill="#EF4323" d="M36.075,37.49h-5.836c-0.657,0-1.252,0.267-1.689,0.703c-0.437,0.438-0.704,1.032-0.704,1.689V50.3
		c0,0.657,0.268,1.251,0.704,1.689c0.437,0.436,1.032,0.703,1.689,0.703H50.89c0.657,0,1.253-0.268,1.689-0.703
		c0.438-0.438,0.703-1.032,0.703-1.689V39.882c0-0.657-0.267-1.251-0.703-1.689c-0.437-0.436-1.032-0.703-1.689-0.703h-5.869v-0.107
		h-0.082c0.002-0.311-0.105-0.716-0.305-1.068c-0.196-0.354-0.476-0.646-0.733-0.792c-0.175-0.1-0.327-0.141-0.474-0.141h-5.726
		c-0.11,0-0.222,0.023-0.347,0.076c-0.123,0.054-0.257,0.14-0.387,0.256c-0.262,0.231-0.505,0.592-0.641,0.965
		c-0.092,0.248-0.137,0.497-0.137,0.704h-0.115V37.49z M48.529,39.282c0.274-0.246,0.646-0.39,1.046-0.391h0.851
		c0.398,0.001,0.768,0.146,1.045,0.392c0.277,0.244,0.465,0.605,0.465,1.01c0,0.403-0.188,0.765-0.465,1.01
		c-0.277,0.246-0.646,0.39-1.045,0.391h-0.851c-0.399-0.001-0.771-0.146-1.046-0.391c-0.277-0.245-0.467-0.606-0.466-1.01
		C48.062,39.888,48.251,39.527,48.529,39.282z M39.923,38.169v-0.505h1.26v0.505c3.164,0.298,5.679,2.813,5.978,5.977h0.59v1.26
		h-0.589c-0.298,3.165-2.814,5.68-5.978,5.978v0.447h-1.26v-0.447c-3.164-0.298-5.681-2.813-5.978-5.978h-0.566v-1.26h0.566
		C34.243,40.981,36.76,38.467,39.923,38.169z"/>
	<path fill="#EF4323" d="M55.214,94.361c0-0.657-0.268-1.251-0.703-1.688c-0.438-0.437-1.033-0.703-1.689-0.703h-5.87v-0.107H46.87
		c0.002-0.311-0.105-0.716-0.305-1.068c-0.196-0.354-0.476-0.645-0.733-0.791c-0.175-0.1-0.328-0.141-0.475-0.141h-5.725
		c-0.11,0-0.223,0.023-0.346,0.076s-0.258,0.139-0.388,0.256c-0.263,0.231-0.505,0.592-0.642,0.965
		c-0.091,0.248-0.137,0.497-0.135,0.703h-0.116v0.107H32.17c-0.656,0-1.252,0.267-1.688,0.703c-0.437,0.438-0.704,1.031-0.704,1.688
		v6.268c2.486,1.213,5.082,2.236,7.767,3.054c-0.922-1.028-1.532-2.343-1.669-3.797H35.31v-1.26h0.565
		c0.299-3.165,2.815-5.681,5.979-5.978v-0.505h1.26v0.505c3.163,0.298,5.678,2.813,5.978,5.978h0.589v1.26h-0.589
		c-0.235,2.484-1.835,4.57-4.044,5.496c2.591,0.389,5.242,0.594,7.941,0.594c0.643,0,1.28-0.025,1.917-0.049
		c0.19-0.343,0.308-0.729,0.308-1.147V94.361z M53.402,95.781c-0.277,0.246-0.646,0.391-1.045,0.391h-0.852
		c-0.398,0-0.771-0.145-1.045-0.391c-0.277-0.244-0.467-0.606-0.467-1.01c0-0.404,0.189-0.766,0.467-1.01
		c0.273-0.246,0.646-0.391,1.045-0.392h0.852c0.398,0.001,0.768,0.146,1.045,0.392c0.277,0.244,0.465,0.605,0.465,1.01
		C53.866,95.175,53.677,95.537,53.402,95.781z"/>
	<path fill="#EF4323" d="M28.89,6.399c1.144,0,2.188,0.469,2.938,1.22c0.749,0.749,1.219,1.792,1.218,2.935v10.418
		c0.001,1.144-0.469,2.187-1.218,2.936c-0.749,0.75-1.794,1.22-2.938,1.22H8.239c-0.103,0-0.2-0.023-0.302-0.031
		c-1.616,2.605-3.007,5.363-4.159,8.245h4.168c0.408,0,0.799,0.091,1.146,0.242c0.35,0.15,0.658,0.359,0.931,0.602
		c0.47,0.423,0.826,0.947,1.076,1.515h4.311c1.144,0,2.188,0.469,2.938,1.22c0.749,0.749,1.219,1.792,1.218,2.935v10.418
		c0.001,1.144-0.469,2.187-1.218,2.936c-0.749,0.751-1.794,1.22-2.938,1.22H0.037C0.41,68.383,6.166,80.991,15.319,90.245h2.487
		c1.144-0.001,2.188,0.47,2.938,1.22c0.749,0.749,1.219,1.793,1.218,2.936v1.529c1.926,1.395,3.945,2.667,6.054,3.796v-5.364
		c0-1.144,0.469-2.188,1.219-2.936c0.75-0.75,1.793-1.221,2.936-1.221h4.307c0.059-0.133,0.12-0.265,0.19-0.392
		c0.349-0.623,0.839-1.179,1.483-1.556c0.43-0.249,0.937-0.412,1.482-0.411h5.725c0.408-0.001,0.799,0.091,1.146,0.242
		c0.35,0.15,0.658,0.359,0.931,0.602c0.469,0.423,0.826,0.946,1.076,1.515h4.311c1.143,0,2.188,0.47,2.938,1.221
		c0.748,0.748,1.219,1.792,1.217,2.935v10.419c0.001,0.361-0.061,0.706-0.148,1.042c2.277-0.163,4.518-0.457,6.707-0.899
		c-0.002-0.044-0.014-0.085-0.014-0.13V94.374c0-1.144,0.469-2.187,1.219-2.936c0.75-0.75,1.793-1.22,2.936-1.22h4.308
		c0.059-0.133,0.12-0.266,0.19-0.393c0.348-0.623,0.838-1.179,1.482-1.555c0.43-0.25,0.938-0.412,1.482-0.412h5.725
		c0.408,0,0.799,0.092,1.146,0.242c0.35,0.15,0.658,0.359,0.932,0.602c0.469,0.423,0.825,0.947,1.075,1.516h4.312
		c0.679,0,1.314,0.181,1.883,0.474c2.826-2.791,5.333-5.899,7.479-9.264H84.172c-1.143,0-2.186-0.469-2.936-1.22
		c-0.75-0.749-1.219-1.792-1.219-2.936V66.856c0-1.144,0.469-2.187,1.219-2.936c0.75-0.75,1.793-1.22,2.936-1.22h4.307
		c0.059-0.133,0.12-0.266,0.19-0.393c0.349-0.623,0.839-1.179,1.483-1.555c0.43-0.25,0.937-0.412,1.482-0.412h5.725
		c0.408,0,0.799,0.092,1.146,0.242c0.35,0.15,0.658,0.359,0.931,0.602c0.47,0.423,0.826,0.947,1.076,1.516h4.311
		c0.084,0,0.163,0.02,0.246,0.025c0.502-2.7,0.796-5.471,0.872-8.297h-5.183c-1.143,0-2.186-0.469-2.936-1.22
		c-0.75-0.749-1.219-1.792-1.219-2.936V39.856c0-1.143,0.469-2.187,1.219-2.936c0.75-0.75,1.793-1.22,2.936-1.22h2.318
		c-1.291-3.74-2.982-7.292-5.034-10.599H77.759c-1.143,0-2.186-0.47-2.936-1.22c-0.75-0.749-1.219-1.792-1.219-2.936V10.528
		c0-1.143,0.469-2.187,1.219-2.936c0.75-0.75,1.793-1.22,2.936-1.22H78.2c-7.497-4.063-16.085-6.372-25.211-6.372
		c-9.148,0-17.754,2.318-25.264,6.398H28.89z M38.458,77.3c0.001,1.144-0.469,2.187-1.218,2.936
		c-0.749,0.75-1.794,1.221-2.938,1.221H13.652c-1.143,0-2.187-0.471-2.936-1.221c-0.75-0.749-1.219-1.792-1.219-2.936V66.882
		c0-1.143,0.469-2.187,1.219-2.936c0.75-0.75,1.793-1.22,2.936-1.22h4.307c0.059-0.133,0.119-0.265,0.189-0.392
		c0.35-0.623,0.839-1.18,1.482-1.557c0.432-0.248,0.938-0.412,1.483-0.41h5.726c0.408-0.001,0.798,0.091,1.146,0.242
		c0.35,0.15,0.658,0.359,0.931,0.602c0.47,0.423,0.826,0.946,1.076,1.515h4.311c1.144-0.001,2.188,0.47,2.938,1.22
		c0.749,0.749,1.219,1.793,1.218,2.936V77.3z M73.473,77.261c0.001,1.143-0.469,2.186-1.218,2.936s-1.794,1.22-2.938,1.22H48.666
		c-1.143,0-2.186-0.47-2.936-1.22s-1.219-1.793-1.219-2.936V66.843c0-1.144,0.469-2.188,1.219-2.936
		c0.75-0.75,1.793-1.221,2.936-1.221h4.308c0.059-0.133,0.119-0.265,0.189-0.392c0.349-0.623,0.839-1.179,1.483-1.556
		c0.43-0.249,0.937-0.412,1.482-0.411h5.725c0.408-0.001,0.799,0.091,1.146,0.242c0.35,0.15,0.658,0.359,0.931,0.602
		c0.47,0.423,0.826,0.946,1.076,1.515h4.311c1.144,0,2.188,0.47,2.938,1.221c0.749,0.748,1.219,1.792,1.218,2.935V77.261z
		 M71.234,33.74c0.43-0.249,0.937-0.412,1.482-0.411h5.725c0.408,0,0.799,0.091,1.146,0.242c0.35,0.15,0.658,0.359,0.931,0.602
		c0.47,0.423,0.826,0.947,1.076,1.515h4.311c1.144,0,2.188,0.469,2.938,1.22c0.749,0.749,1.219,1.792,1.218,2.935v10.419
		c0.001,1.143-0.469,2.186-1.218,2.936s-1.794,1.22-2.938,1.22H65.253c-1.143,0-2.186-0.47-2.936-1.22s-1.219-1.793-1.219-2.936
		V39.843c0-1.143,0.469-2.187,1.219-2.936c0.75-0.75,1.793-1.22,2.936-1.22h4.307c0.06-0.133,0.12-0.265,0.19-0.392
		C70.099,34.672,70.589,34.116,71.234,33.74z M39.098,10.514c0-1.143,0.469-2.187,1.219-2.936c0.75-0.75,1.793-1.22,2.936-1.22
		h4.307c0.059-0.133,0.119-0.265,0.189-0.392c0.349-0.623,0.839-1.179,1.483-1.556C49.664,4.162,50.17,3.999,50.716,4h5.725
		c0.408,0,0.799,0.091,1.146,0.242c0.35,0.15,0.658,0.359,0.931,0.602c0.47,0.423,0.826,0.947,1.076,1.515h4.311
		c1.144,0,2.188,0.469,2.938,1.22c0.749,0.749,1.219,1.792,1.218,2.935v10.418c0.001,1.144-0.469,2.187-1.218,2.936
		c-0.749,0.75-1.794,1.22-2.938,1.22H43.254c-1.143,0-2.187-0.47-2.936-1.22c-0.75-0.749-1.219-1.792-1.219-2.936V10.514z
		 M36.218,33.779c0.432-0.249,0.938-0.412,1.483-0.411h5.726c0.408,0,0.798,0.091,1.146,0.242c0.35,0.15,0.658,0.359,0.931,0.602
		c0.47,0.423,0.826,0.947,1.076,1.515h4.311c1.144,0,2.188,0.469,2.938,1.22c0.749,0.749,1.219,1.792,1.218,2.935V50.3
		c0.001,1.144-0.469,2.187-1.218,2.936c-0.749,0.75-1.794,1.221-2.938,1.221H30.239c-1.143,0-2.187-0.471-2.936-1.221
		c-0.75-0.749-1.219-1.792-1.219-2.936V39.882c0-1.143,0.469-2.187,1.219-2.936c0.75-0.75,1.793-1.22,2.936-1.22h4.307
		c0.059-0.133,0.119-0.265,0.189-0.392C35.085,34.712,35.574,34.156,36.218,33.779z"/>
	<path fill="#EF4323" d="M17.923,20.765v-0.641h0.377v-0.611h-0.298v-0.755h0.298v-0.475h-0.298v-0.755h0.298v-0.475h-0.298V16.3
		h0.298v-0.6h-0.599v0.273h-0.755V15.7h-0.474v0.273h-0.756V15.7h-0.369c-0.035,0.036-0.069,0.073-0.104,0.109v0.164h-0.156
		c-0.505,0.518-1.004,1.041-1.488,1.579c0.272,0.639,0.664,1.215,1.148,1.7C15.583,20.087,16.692,20.62,17.923,20.765z M16.329,16.2
		c0.237,0.682,0.781,1.224,1.468,1.462v0.787c-1.105-0.283-1.974-1.149-2.255-2.249H16.329z"/>
	<path fill="#EF4323" d="M28.89,23.365c0.657,0,1.253-0.268,1.689-0.704c0.438-0.438,0.703-1.032,0.703-1.689V10.553
		c0-0.657-0.267-1.251-0.703-1.689c-0.437-0.436-1.032-0.703-1.689-0.703h-4.143c-0.874,0.552-1.729,1.128-2.567,1.729
		c1.647,1.077,2.786,2.863,2.981,4.928h0.59v1.259h-0.589c-0.298,3.165-2.814,5.68-5.978,5.978v0.447h-1.26v-0.447
		c-2.263-0.213-4.195-1.56-5.221-3.468c-1.302,1.523-2.529,3.112-3.654,4.777H28.89z M26.529,9.954
		c0.274-0.246,0.646-0.39,1.046-0.391h0.851c0.398,0.001,0.768,0.146,1.045,0.392c0.277,0.244,0.465,0.605,0.465,1.01
		c0,0.403-0.188,0.765-0.465,1.01c-0.277,0.246-0.646,0.39-1.045,0.391h-0.851c-0.399-0.001-0.771-0.145-1.046-0.391
		c-0.277-0.245-0.467-0.606-0.466-1.01C26.062,10.56,26.251,10.199,26.529,9.954z"/>
	<path fill="#EF4323" d="M78.62,93.951v0.581h-0.377v0.671h0.307v0.755h-0.307v0.474h0.307v0.756h-0.307v0.474h0.307v0.756h-0.307
		v0.6h0.598V98.74h0.756v0.063c0.213-0.124,0.43-0.242,0.64-0.368c-0.254-0.67-0.8-1.2-1.491-1.421v-0.782
		c0.969,0.23,1.758,0.908,2.146,1.799c0.63-0.392,1.254-0.79,1.866-1.207c-0.257-0.499-0.569-0.966-0.964-1.36
		C80.959,94.63,79.852,94.097,78.62,93.951z"/>
</g>
</svg>
