<?xml version="1.0" encoding="utf-8"?>
<!-- Generator: Adobe Illustrator 15.1.0, SVG Export Plug-In . SVG Version: 6.00 Build 0)  -->
<!DOCTYPE svg PUBLIC "-//W3C//DTD SVG 1.1//EN" "http://www.w3.org/Graphics/SVG/1.1/DTD/svg11.dtd">
<svg version="1.1" id="Livello_1" xmlns="http://www.w3.org/2000/svg" xmlns:xlink="http://www.w3.org/1999/xlink" x="0px" y="0px"
	 width="105.979px" height="105.975px" viewBox="0 0 105.979 105.975" enable-background="new 0 0 105.979 105.975"
	 xml:space="preserve">
<g id="Livello_2">
</g>
<g id="Livello_1_1_">
	<g>
		<path fill="#EF4323" d="M67.729,52.077h-4.627v1.375h-3.067v-1.375h-5.184v5.186h1.912v3.065h-1.912v4.447h0.383v2.033
			c3.757-0.44,7.118-2.138,9.665-4.681c2.539-2.543,4.243-5.904,4.682-9.664h-1.852V52.077z"/>
		<path fill="#EF4323" d="M54.852,36.129v4.637h1.912v3.069h-1.912v5.18h5.184v-1.689h3.067v1.689h4.627v-0.384h1.852
			c-0.438-3.758-2.143-7.123-4.682-9.662c-2.547-2.544-5.908-4.243-9.665-4.684v1.843L54.852,36.129L54.852,36.129z"/>
		<path fill="#EF4323" d="M51.783,64.776v-4.447h-1.709v-3.065h1.709v-5.186h-5.948v1.375h-3.063v-1.375h-3.867v0.389h-1.85
			c0.438,3.759,2.142,7.121,4.684,9.664c2.544,2.543,5.904,4.239,9.664,4.681v-2.033h0.38V64.776z"/>
		<path fill="#EF4323" d="M38.905,49.014h3.867v-1.689h3.063v1.689h5.948v-5.18h-1.709v-3.069h1.709v-4.637h-0.38v-1.843
			c-3.76,0.44-7.12,2.139-9.664,4.684c-2.542,2.539-4.246,5.904-4.684,9.662h1.85V49.014z"/>
		<path fill="#EF4323" d="M84.782,28.367H66.919v-0.018h-0.252c0.007-0.946-0.325-2.182-0.929-3.252
			c-0.596-1.074-1.449-1.966-2.23-2.412c-0.528-0.299-0.996-0.423-1.444-0.423H44.645c-0.342,0-0.684,0.071-1.059,0.229
			c-0.374,0.162-0.779,0.419-1.18,0.777c-0.799,0.707-1.535,1.808-1.948,2.938c-0.277,0.751-0.416,1.512-0.411,2.142h-1.143v0.018
			H21.924c-1.999,0.003-3.806,0.815-5.138,2.145c-1.331,1.331-2.142,3.142-2.145,5.142v32.943c0.003,1.999,0.813,3.806,2.145,5.142
			c1.332,1.324,3.139,2.14,5.138,2.14h62.858c2.003,0,3.807-0.814,5.143-2.14c1.327-1.336,2.142-3.143,2.146-5.142V35.652
			c-0.004-2-0.817-3.813-2.146-5.142C88.589,29.182,86.785,28.37,84.782,28.367z M76.138,52.466h-2.704
			c-0.907,9.633-8.572,17.292-18.199,18.198V73h-3.831v-2.336c-9.633-0.905-17.298-8.564-18.205-18.198h-2.671v-3.834h2.671
			c0.907-9.634,8.572-17.295,18.205-18.196V28.35h3.831v2.085c9.627,0.901,17.292,8.563,18.199,18.196h2.704V52.466z M86.552,39.974
			c-0.848,0.747-1.969,1.187-3.188,1.189h-2.584c-1.218-0.003-2.349-0.442-3.187-1.189c-0.841-0.743-1.42-1.845-1.42-3.073
			c0-1.233,0.579-2.333,1.42-3.073c0.838-0.751,1.969-1.195,3.187-1.195h2.584c1.219,0,2.34,0.444,3.188,1.195
			c0.836,0.739,1.413,1.84,1.413,3.073C87.966,38.129,87.388,39.23,86.552,39.974z"/>
		<path fill="#EF4323" d="M83.365,35.703h-2.584c-0.478-0.003-0.883,0.173-1.146,0.41c-0.274,0.251-0.387,0.517-0.392,0.789
			c0.005,0.271,0.116,0.537,0.392,0.781c0.263,0.24,0.668,0.417,1.146,0.413h2.584c0.471,0.004,0.876-0.173,1.146-0.413
			c0.271-0.245,0.384-0.511,0.387-0.781c-0.003-0.271-0.116-0.537-0.387-0.789C84.241,35.875,83.836,35.699,83.365,35.703z"/>
		<path fill="#EF4323" d="M52.989,0C23.722,0,0,23.721,0,52.989c0,29.265,23.723,52.985,52.989,52.985
			c29.264,0,52.988-23.721,52.988-52.985C105.978,23.721,82.253,0,52.989,0z M93.717,77.529c-2.278,2.281-5.453,3.71-8.935,3.71
			H21.924c-3.476,0-6.654-1.429-8.934-3.71c-2.285-2.28-3.716-5.454-3.713-8.934V35.652c-0.003-3.482,1.428-6.655,3.713-8.935
			c2.278-2.287,5.458-3.717,8.934-3.717h13.235c0.146-0.299,0.291-0.598,0.454-0.887c1.06-1.896,2.551-3.589,4.515-4.732
			c1.309-0.764,2.854-1.256,4.518-1.252h17.418c1.251-0.003,2.434,0.276,3.495,0.734c1.063,0.46,2.002,1.094,2.83,1.834
			c1.35,1.214,2.401,2.694,3.154,4.304h13.239c3.48,0,6.655,1.43,8.935,3.718c2.289,2.278,3.717,5.451,3.717,8.934v32.943
			C97.433,72.075,96.006,75.249,93.717,77.529z"/>
	</g>
</g>
</svg>
