<?xml version="1.0" encoding="utf-8"?>
<!-- Generator: Adobe Illustrator 15.1.0, SVG Export Plug-In . SVG Version: 6.00 Build 0)  -->
<!DOCTYPE svg PUBLIC "-//W3C//DTD SVG 1.1//EN" "http://www.w3.org/Graphics/SVG/1.1/DTD/svg11.dtd">
<svg version="1.1" id="Livello_1" xmlns="http://www.w3.org/2000/svg" xmlns:xlink="http://www.w3.org/1999/xlink" x="0px" y="0px"
	 width="48px" height="10.742px" viewBox="3.253 0 48 10.742" enable-background="new 3.253 0 48 10.742" xml:space="preserve">
<g>
	<rect fill="none" width="122.083" height="10.742"/>
	<g enable-background="new    ">
		<path fill="#EF4323" d="M8.701,10.364H3.505V0.561h4.977V1.6H4.654v3.261h3.541v1.032H4.654v3.432h4.047V10.364z"/>
		<path fill="#EF4323" d="M15.673,10.364h-5.086V0.561h1.148v8.764h3.938V10.364z"/>
		<path fill="#EF4323" d="M18.326,10.364h-1.148V0.561h1.148V10.364z"/>
		<path fill="#EF4323" d="M29.803,10.364h-1.142V3.788c0-0.26,0.008-0.555,0.024-0.885c0.016-0.331,0.04-0.686,0.072-1.063H28.73
			c-0.027,0.109-0.068,0.231-0.123,0.366c-0.055,0.134-0.113,0.264-0.174,0.389c-0.062,0.126-0.119,0.238-0.171,0.339
			s-0.09,0.176-0.113,0.226l-2.516,4.648h-0.561l-2.516-4.635c-0.023-0.055-0.062-0.133-0.116-0.236
			c-0.055-0.102-0.112-0.216-0.171-0.342c-0.059-0.125-0.115-0.254-0.167-0.386s-0.092-0.255-0.12-0.369h-0.027
			c0.018,0.196,0.032,0.46,0.041,0.793s0.014,0.723,0.014,1.169v6.563h-1.107V0.561h1.436l2.543,4.662
			c0.109,0.205,0.203,0.396,0.28,0.574s0.134,0.333,0.171,0.465h0.041c0.045-0.137,0.106-0.296,0.181-0.479s0.172-0.378,0.291-0.588
			l2.536-4.635h1.422V10.364z"/>
		<path fill="#EF4323" d="M33.522,10.364h-1.148V0.561h1.148V10.364z"/>
		<path fill="#EF4323" d="M44.001,10.364h-1.408L37.548,2.55c-0.127-0.196-0.232-0.401-0.314-0.615h-0.041
			c0.037,0.21,0.055,0.658,0.055,1.347v7.082h-1.148V0.561h1.49l4.908,7.69c0.205,0.319,0.337,0.538,0.396,0.656h0.027
			c-0.045-0.282-0.068-0.764-0.068-1.442V0.561h1.148V10.364z"/>
		<path fill="#EF4323" d="M51.432,10.364h-1.121V9.27h-0.027c-0.488,0.839-1.206,1.258-2.153,1.258
			c-0.697,0-1.243-0.185-1.637-0.554s-0.591-0.859-0.591-1.47c0-1.308,0.77-2.069,2.311-2.283l2.099-0.294
			c0-1.189-0.481-1.784-1.442-1.784c-0.843,0-1.604,0.287-2.283,0.861V3.856C47.273,3.418,48.066,3.2,48.964,3.2
			c1.645,0,2.468,0.87,2.468,2.611V10.364z M50.311,6.823l-1.688,0.232c-0.52,0.073-0.912,0.201-1.176,0.387
			c-0.264,0.184-0.396,0.511-0.396,0.98c0,0.342,0.122,0.621,0.366,0.838c0.244,0.216,0.568,0.324,0.974,0.324
			c0.556,0,1.015-0.195,1.377-0.584c0.362-0.391,0.543-0.884,0.543-1.48V6.823z"/>
	</g>
</g>
</svg>
