<?xml version="1.0" encoding="utf-8"?>
<!-- Generator: Adobe Illustrator 15.1.0, SVG Export Plug-In . SVG Version: 6.00 Build 0)  -->
<!DOCTYPE svg PUBLIC "-//W3C//DTD SVG 1.1//EN" "http://www.w3.org/Graphics/SVG/1.1/DTD/svg11.dtd">
<svg version="1.1" id="Livello_1" xmlns="http://www.w3.org/2000/svg" xmlns:xlink="http://www.w3.org/1999/xlink" x="0px" y="0px"
	 width="57.91px" height="11.646px" viewBox="0 0 57.91 11.646" enable-background="new 0 0 57.91 11.646" xml:space="preserve">
<g>
	<image overflow="visible" width="267" height="74" xlink:href="1B48713.png"  transform="matrix(0.24 0 0 0.24 -2 -2)">
	</image>
	<g>
		<g>
			<path fill="#EF4423" d="M8.337,10.363H3.142V0.561h4.977V1.6H4.29V4.86h3.541v1.032H4.29v3.432h4.047V10.363z"/>
			<path fill="#EF4423" d="M15.659,10.363h-5.086V0.561h1.148v8.764h3.938V10.363z"/>
			<path fill="#EF4423" d="M18.662,10.363h-1.148V0.561h1.148V10.363z"/>
			<path fill="#EF4423" d="M30.489,10.363h-1.142V3.787c0-0.26,0.008-0.555,0.023-0.885c0.017-0.331,0.04-0.685,0.072-1.063h-0.027
				c-0.027,0.109-0.068,0.231-0.123,0.366s-0.113,0.264-0.174,0.39C29.057,2.72,29,2.833,28.947,2.933
				c-0.052,0.1-0.09,0.175-0.112,0.226l-2.516,4.648h-0.561l-2.516-4.635c-0.022-0.055-0.062-0.133-0.116-0.236
				s-0.111-0.216-0.171-0.342s-0.115-0.254-0.167-0.386c-0.053-0.132-0.093-0.255-0.12-0.369h-0.027
				c0.019,0.196,0.032,0.46,0.041,0.793s0.014,0.722,0.014,1.169v6.563h-1.107V0.561h1.436l2.543,4.662
				c0.109,0.205,0.203,0.396,0.28,0.574s0.135,0.333,0.171,0.465h0.041c0.046-0.137,0.106-0.296,0.181-0.479
				c0.076-0.182,0.173-0.378,0.291-0.588l2.536-4.635h1.422V10.363z"/>
			<path fill="#EF4423" d="M34.559,10.363H33.41V0.561h1.148V10.363z"/>
			<path fill="#EF4423" d="M45.388,10.363h-1.408L38.935,2.55c-0.128-0.196-0.232-0.401-0.314-0.615h-0.041
				c0.036,0.209,0.055,0.659,0.055,1.347v7.082h-1.148V0.561h1.49l4.908,7.69c0.205,0.319,0.337,0.538,0.396,0.656h0.027
				c-0.046-0.282-0.068-0.763-0.068-1.442V0.561h1.148V10.363z"/>
			<path fill="#EF4423" d="M55.896,10.363h-1.271l-1.039-2.748h-4.156l-0.978,2.748h-1.278l3.76-9.803h1.189L55.896,10.363z
				 M53.209,6.583l-1.538-4.177c-0.05-0.137-0.101-0.355-0.15-0.656h-0.027c-0.046,0.278-0.098,0.497-0.157,0.656l-1.524,4.177
				H53.209z"/>
		</g>
	</g>
</g>
</svg>
