<?xml version="1.0" encoding="utf-8"?>
<!-- Generator: Adobe Illustrator 15.1.0, SVG Export Plug-In . SVG Version: 6.00 Build 0)  -->
<!DOCTYPE svg PUBLIC "-//W3C//DTD SVG 1.1//EN" "http://www.w3.org/Graphics/SVG/1.1/DTD/svg11.dtd">
<svg version="1.1" id="Livello_1" xmlns="http://www.w3.org/2000/svg" xmlns:xlink="http://www.w3.org/1999/xlink" x="0px" y="0px"
	 width="21.625px" height="21.688px" viewBox="0 0 21.625 21.688" enable-background="new 0 0 21.625 21.688" xml:space="preserve">
<g>
	<circle fill="#EF4323" stroke="#EF4323" stroke-miterlimit="10" cx="10.813" cy="10.831" r="10.313"/>
	<g>
		<line fill="#414042" x1="16.125" y1="9.687" x2="16.125" y2="3.35"/>
		<g>
			<path fill="#F1F2F2" d="M16.875,9.687c0-2.112,0-4.224,0-6.336c0-0.967-1.5-0.967-1.5,0c0,2.112,0,4.224,0,6.336
				C15.375,10.654,16.875,10.654,16.875,9.687L16.875,9.687z"/>
		</g>
	</g>
	<g>
		<g>
			<path fill="#F1F2F2" d="M12.957,7.269c2.112,0,4.224,0,6.336,0c0.968,0,0.968-1.5,0-1.5c-2.112,0-4.224,0-6.336,0
				C11.99,5.769,11.99,7.269,12.957,7.269L12.957,7.269z"/>
		</g>
	</g>
</g>
<g>
	<path fill="#FFFFFF" d="M6.754,14.799v4.764H5.277V6.959H8.74c1.348,0,2.392,0.328,3.133,0.984s1.112,1.582,1.112,2.777
		s-0.412,2.174-1.235,2.936s-1.935,1.143-3.335,1.143H6.754z M6.754,8.295v5.168h1.547c1.02,0,1.797-0.232,2.333-0.699
		c0.536-0.465,0.804-1.123,0.804-1.973c0-1.664-0.984-2.496-2.953-2.496H6.754z"/>
</g>
</svg>
