<?xml version="1.0" encoding="utf-8"?>
<!-- Generator: Adobe Illustrator 15.1.0, SVG Export Plug-In . SVG Version: 6.00 Build 0)  -->
<!DOCTYPE svg PUBLIC "-//W3C//DTD SVG 1.1//EN" "http://www.w3.org/Graphics/SVG/1.1/DTD/svg11.dtd">
<svg version="1.1" xmlns="http://www.w3.org/2000/svg" xmlns:xlink="http://www.w3.org/1999/xlink" x="0px" y="0px"
	 width="59.833px" height="59.839px" viewBox="0 0 59.833 59.839" enable-background="new 0 0 59.833 59.839" xml:space="preserve">
<g id="Livello_2">
	
		<ellipse fill="#FFFFFF" stroke="#414042" stroke-width="3" stroke-miterlimit="10" cx="30.006" cy="29.794" rx="28.089" ry="27.309"/>
</g>
<g id="Livello_1">
	<path fill="#EF4323" stroke="#414042" stroke-width="2" stroke-miterlimit="10" d="M43.938,22.471l4.033-5.646l-4.419-4.419
		l-5.645,4.035c-1.048-0.587-2.17-1.054-3.347-1.389L33.42,8.21h-6.25l-1.141,6.842c-1.178,0.335-2.3,0.802-3.346,1.389
		l-5.646-4.035l-4.418,4.419l4.031,5.646c-0.587,1.046-1.052,2.167-1.386,3.347l-6.842,1.141v6.249l6.842,1.141
		c0.334,1.178,0.799,2.298,1.386,3.348l-4.031,5.645l4.418,4.419l5.645-4.033c1.047,0.585,2.17,1.053,3.348,1.386l1.14,6.844h6.249
		l1.14-6.844c1.179-0.333,2.3-0.801,3.349-1.386l5.645,4.033l4.419-4.419l-4.031-5.645c0.586-1.049,1.051-2.17,1.385-3.348
		l6.845-1.141v-6.249l-6.843-1.141C44.991,24.638,44.524,23.519,43.938,22.471z"/>
	
		<ellipse fill="#FFFFFF" stroke="#414042" stroke-width="2" stroke-miterlimit="10" cx="30.294" cy="29.883" rx="6.991" ry="6.797"/>
</g>
</svg>
