<?xml version="1.0" encoding="utf-8"?>
<!-- Generator: Adobe Illustrator 15.1.0, SVG Export Plug-In . SVG Version: 6.00 Build 0)  -->
<!DOCTYPE svg PUBLIC "-//W3C//DTD SVG 1.1//EN" "http://www.w3.org/Graphics/SVG/1.1/DTD/svg11.dtd">
<svg version="1.1" xmlns="http://www.w3.org/2000/svg" xmlns:xlink="http://www.w3.org/1999/xlink" x="0px" y="0px"
	 width="59.833px" height="59.839px" viewBox="0 0 59.833 59.839" enable-background="new 0 0 59.833 59.839" xml:space="preserve">
<g id="Livello_2">
	
		<ellipse fill="#FFFFFF" stroke="#414042" stroke-width="3" stroke-miterlimit="10" cx="30.006" cy="29.794" rx="28.089" ry="27.309"/>
</g>
<g id="Livello_1">
	
		<ellipse fill="#FFFFFF" stroke="#414042" stroke-width="2" stroke-miterlimit="10" cx="39.786" cy="15.289" rx="6.991" ry="6.797"/>
	
		<ellipse fill="#EF4323" stroke="#414042" stroke-width="2" stroke-miterlimit="10" cx="22.403" cy="19.213" rx="6.991" ry="6.798"/>
	<g>
		<path fill="none" stroke="#414042" stroke-width="2" stroke-miterlimit="10" d="M27.564,36.468
			c0-7.943,5.471-14.382,12.221-14.382s12.221,6.439,12.221,14.382c0,7.945-3.285,6.963-12.221,7.012
			C31.099,43.525,27.564,44.414,27.564,36.468z"/>
		<line fill="none" stroke="#414042" stroke-width="2" stroke-miterlimit="10" x1="27.564" y1="36.468" x2="52.006" y2="36.468"/>
	</g>
	<g>
		<path fill="#EF4323" stroke="#414042" stroke-width="2" stroke-miterlimit="10" d="M10.182,40.393
			c0-7.943,5.471-14.383,12.221-14.383s12.221,6.439,12.221,14.383c0,7.944-3.286,6.962-12.221,7.011
			C13.717,47.45,10.182,48.337,10.182,40.393z"/>
		
			<line fill="#EF4323" stroke="#414042" stroke-width="2" stroke-miterlimit="10" x1="10.182" y1="40.393" x2="34.625" y2="40.393"/>
	</g>
</g>
</svg>
