<?xml version="1.0" encoding="utf-8"?>
<!-- Generator: Adobe Illustrator 15.1.0, SVG Export Plug-In . SVG Version: 6.00 Build 0)  -->
<!DOCTYPE svg PUBLIC "-//W3C//DTD SVG 1.1//EN" "http://www.w3.org/Graphics/SVG/1.1/DTD/svg11.dtd">
<svg version="1.1" xmlns="http://www.w3.org/2000/svg" xmlns:xlink="http://www.w3.org/1999/xlink" x="0px" y="0px"
	 width="151.908px" height="103.375px" viewBox="0 0 151.908 103.375" enable-background="new 0 0 151.908 103.375"
	 xml:space="preserve">
<g id="Livello_2">
</g>
<g id="Livello_1">
	<g>
		<path fill="#414042" d="M74.382,84.025v-3.643h-1.785v-4.514h1.785v-2.831h-1.785v-4.513h1.785V65.7h-1.785v-4.514h1.785v-3.578
			h-3.581v1.63H66.29v-1.63h-2.829v1.63h-4.512v-1.63H56.12v1.63h-4.512v-1.63h-4.003v2.256h-3.618
			c0.86,7.372,4.191,13.972,9.175,18.963c4.992,4.985,11.589,8.314,18.961,9.171v-3.973H74.382z M71.372,74.026
			c-6.604-1.69-11.791-6.862-13.466-13.426l4.699-0.006c1.411,4.077,4.658,7.309,8.767,8.73V74.026z"/>
		<path fill="#414042" d="M77.387,27.819v4.002h1.842v4.515h-1.842v2.827h1.842v4.512h-1.842v2.83h1.842v4.512h-1.842v3.581h3.581
			v-1.645h4.512v1.645h2.831v-1.645h4.509v1.645h2.83v-1.645h4.511v1.645h4.004v-2.257h3.611
			c-0.859-7.372-4.187-13.973-9.171-18.963c-4.992-4.982-11.588-8.313-18.959-9.171v3.611H77.387z M80.397,37.976
			c6.775,1.612,12.125,6.876,13.809,13.573l-4.691,0.006c-1.438-4.215-4.833-7.545-9.118-8.913V37.976z"/>
		<path fill="#414042" d="M134.838,26.974h-5.075c-0.919-0.003-1.72,0.341-2.248,0.815c-0.532,0.481-0.76,1.003-0.763,1.536
			c0.003,0.531,0.23,1.053,0.763,1.536c0.527,0.473,1.328,0.816,2.248,0.813h5.075c0.924,0.003,1.723-0.34,2.25-0.813
			c0.531-0.481,0.756-1,0.758-1.536c-0.002-0.535-0.228-1.057-0.758-1.536C136.561,27.315,135.762,26.971,134.838,26.974z"/>
		<path fill="#414042" d="M47.605,54.598h4.003v-1.645h4.512v1.645h2.829v-1.645h4.512v1.645h2.829v-1.645h4.511v1.645h3.581v-3.581
			h-1.785v-4.512h1.785v-2.83h-1.785v-4.512h1.785v-2.827h-1.785v-4.515h1.785v-4.002h-2.258v-3.611
			c-7.372,0.858-13.97,4.188-18.961,9.171c-4.984,4.99-8.315,11.591-9.175,18.963h3.618V54.598z M71.372,38.061v4.701
			c-4.134,1.43-7.404,4.694-8.802,8.811l-4.688,0.003C59.532,44.969,64.741,39.759,71.372,38.061z"/>
		<path fill="#414042" d="M104.165,57.608h-4.004v1.63h-4.511v-1.63h-2.83v1.63H88.31v-1.63h-2.831v1.63h-4.512v-1.63h-3.581v3.578
			h1.842V65.7h-1.842v2.825h1.842v4.513h-1.842v2.831h1.842v4.514h-1.842v3.643h2.258v3.973c7.371-0.856,13.967-4.188,18.959-9.171
			c4.985-4.991,8.313-11.591,9.171-18.963h-3.611V57.608z M80.395,74.111v-4.667c4.267-1.361,7.65-4.673,9.099-8.864l4.699-0.006
			C92.495,67.256,87.157,72.5,80.395,74.111z"/>
		<path fill="#414042" d="M137.62,12.586h-35.047v-0.638h-0.501c0.015-1.854-0.632-4.272-1.815-6.375
			c-1.167-2.117-2.842-3.861-4.382-4.731C94.838,0.246,93.925,0.001,93.045,0H58.86c-0.664,0.001-1.332,0.141-2.072,0.456
			c-0.738,0.319-1.536,0.829-2.313,1.525c-1.572,1.385-3.015,3.543-3.824,5.767c-0.547,1.475-0.819,2.966-0.816,4.2h-0.69v0.638
			H14.288c-3.925,0.002-7.473,1.595-10.086,4.202C1.595,19.401,0.001,22.948,0,26.875v62.214c0.001,3.93,1.595,7.475,4.202,10.089
			c2.613,2.604,6.161,4.198,10.086,4.198H137.62c3.925,0,7.471-1.594,10.087-4.198c2.607-2.614,4.199-6.159,4.201-10.089V26.875
			c-0.002-3.927-1.594-7.475-4.201-10.086C145.091,14.181,141.545,12.588,137.62,12.586z M118.865,59.864h-3.511
			c-1.78,18.9-16.813,33.932-35.708,35.71v2.654h-7.522v-2.654c-18.896-1.778-33.933-16.81-35.711-35.71h-3.371v-7.522h3.371
			c1.779-18.899,16.815-33.931,35.711-35.71v-3.008h7.522v3.008c18.896,1.781,33.928,16.811,35.708,35.71h3.511V59.864z
			 M141.087,35.354c-1.655,1.471-3.861,2.333-6.25,2.337h-5.075c-2.39-0.004-4.597-0.866-6.25-2.337
			c-1.65-1.457-2.778-3.617-2.774-6.029c-0.003-2.415,1.124-4.572,2.774-6.03c1.653-1.47,3.859-2.333,6.25-2.337h5.075
			c2.389,0.003,4.594,0.867,6.25,2.337c1.652,1.46,2.776,3.616,2.775,6.03C143.864,31.737,142.739,33.896,141.087,35.354z"/>
	</g>
</g>
</svg>
