<?xml version="1.0" encoding="utf-8"?>
<!-- Generator: Adobe Illustrator 15.1.0, SVG Export Plug-In . SVG Version: 6.00 Build 0)  -->
<!DOCTYPE svg PUBLIC "-//W3C//DTD SVG 1.1//EN" "http://www.w3.org/Graphics/SVG/1.1/DTD/svg11.dtd">
<svg version="1.1" id="Livello_1" xmlns="http://www.w3.org/2000/svg" xmlns:xlink="http://www.w3.org/1999/xlink" x="0px" y="0px"
	 width="46.523px" height="31.659px" viewBox="0 0 46.523 31.659" enable-background="new 0 0 46.523 31.659" xml:space="preserve">
<g>
	<path fill="#414042" d="M22.78,25.732v-1.115h-0.546v-1.382h0.546v-0.867h-0.546v-1.382h0.546v-0.865h-0.546v-1.383h0.546v-1.096
		h-1.096v0.499h-1.382v-0.499h-0.866v0.499h-1.382v-0.499h-0.866v0.499h-1.382v-0.499h-1.226v0.69h-1.108
		c0.263,2.258,1.284,4.279,2.811,5.809c1.528,1.526,3.548,2.546,5.807,2.809v-1.218H22.78z M21.858,22.671
		c-2.022-0.518-3.61-2.102-4.124-4.112l1.439-0.001c0.432,1.248,1.427,2.237,2.685,2.673V22.671z"/>
	<path fill="#414042" d="M23.701,8.52v1.226h0.563v1.383h-0.563v0.866h0.563v1.381h-0.563v0.867h0.563v1.381h-0.563v1.097h1.096
		v-0.504h1.382v0.504h0.867v-0.504h1.381v0.504h0.867v-0.504h1.381v0.504h1.227v-0.691h1.106c-0.263-2.257-1.283-4.279-2.809-5.807
		c-1.529-1.526-3.549-2.546-5.806-2.809V8.52H23.701z M24.622,11.63c2.076,0.494,3.713,2.106,4.229,4.157l-1.437,0.002
		c-0.44-1.291-1.48-2.311-2.792-2.729V11.63z"/>
	<path fill="#414042" d="M41.295,8.261h-1.555c-0.281-0.001-0.526,0.104-0.688,0.25c-0.163,0.147-0.232,0.307-0.233,0.471
		c0.001,0.163,0.07,0.322,0.233,0.47c0.162,0.145,0.407,0.25,0.688,0.249h1.555c0.282,0.001,0.527-0.104,0.688-0.249
		c0.162-0.147,0.232-0.306,0.232-0.47c0-0.164-0.07-0.324-0.232-0.471C41.823,8.365,41.578,8.259,41.295,8.261z"/>
	<path fill="#414042" d="M14.579,16.721h1.226v-0.504h1.382v0.504h0.866v-0.504h1.382v0.504h0.866v-0.504h1.382v0.504h1.096v-1.097
		h-0.546v-1.381h0.546v-0.867h-0.546v-1.381h0.546v-0.866h-0.546V9.745h0.546V8.52h-0.691V7.414
		c-2.258,0.263-4.278,1.283-5.807,2.809c-1.527,1.528-2.547,3.55-2.811,5.807h1.108V16.721z M21.858,11.656v1.439
		c-1.266,0.438-2.267,1.437-2.695,2.698l-1.436,0.001C18.232,13.772,19.827,12.176,21.858,11.656z"/>
	<path fill="#414042" d="M31.901,17.643h-1.227v0.499h-1.381v-0.499h-0.867v0.499h-1.381v-0.499h-0.867v0.499h-1.382v-0.499h-1.096
		v1.096h0.563v1.383h-0.563v0.865h0.563v1.382h-0.563v0.867h0.563v1.382h-0.563v1.115h0.691v1.218
		c2.257-0.263,4.277-1.283,5.806-2.809c1.526-1.529,2.546-3.551,2.809-5.809h-1.106V17.643z M24.622,22.696v-1.429
		c1.307-0.417,2.342-1.432,2.786-2.715l1.439-0.002C28.328,20.598,26.692,22.203,24.622,22.696z"/>
	<path fill="#414042" d="M42.147,3.854H31.414V3.659H31.26c0.005-0.567-0.193-1.308-0.556-1.953
		c-0.357-0.648-0.87-1.183-1.342-1.449C29.045,0.075,28.765,0,28.496,0H18.026c-0.203,0-0.408,0.042-0.635,0.14
		c-0.226,0.098-0.471,0.253-0.708,0.467c-0.481,0.424-0.923,1.085-1.171,1.766c-0.168,0.452-0.251,0.908-0.25,1.286h-0.211v0.195
		H4.376c-1.203,0-2.289,0.489-3.089,1.287C0.489,5.941,0,7.027,0,8.23v19.054c0,1.203,0.489,2.288,1.287,3.089
		c0.8,0.798,1.887,1.286,3.089,1.286h37.771c1.202,0,2.288-0.488,3.09-1.286c0.798-0.801,1.285-1.886,1.286-3.089V8.23
		c-0.001-1.203-0.488-2.289-1.286-3.089C44.435,4.343,43.349,3.854,42.147,3.854z M36.403,18.333h-1.075
		c-0.545,5.789-5.149,10.393-10.936,10.937v0.813h-2.304V29.27c-5.788-0.544-10.393-5.147-10.937-10.937h-1.033v-2.304h1.033
		c0.544-5.788,5.149-10.392,10.937-10.937V4.172h2.304v0.921c5.787,0.546,10.39,5.149,10.936,10.937h1.075V18.333z M43.208,10.827
		c-0.507,0.45-1.183,0.714-1.913,0.716h-1.555c-0.732-0.001-1.408-0.266-1.914-0.716c-0.505-0.446-0.851-1.108-0.85-1.846
		c-0.001-0.74,0.345-1.4,0.85-1.847c0.506-0.45,1.182-0.714,1.914-0.716h1.555c0.73,0.001,1.406,0.266,1.913,0.716
		c0.507,0.447,0.852,1.107,0.851,1.847C44.06,9.719,43.715,10.381,43.208,10.827z"/>
</g>
</svg>
