<?xml version="1.0" encoding="utf-8"?>
<!-- Generator: Adobe Illustrator 15.1.0, SVG Export Plug-In . SVG Version: 6.00 Build 0)  -->
<!DOCTYPE svg PUBLIC "-//W3C//DTD SVG 1.1//EN" "http://www.w3.org/Graphics/SVG/1.1/DTD/svg11.dtd">
<svg version="1.1" id="Livello_1" xmlns="http://www.w3.org/2000/svg" xmlns:xlink="http://www.w3.org/1999/xlink" x="0px" y="0px"
	 width="60.334px" height="10.742px" viewBox="2.92 0 60.334 10.742" enable-background="new 2.92 0 60.334 10.742"
	 xml:space="preserve">
<g>
	<rect fill="none" width="122.083" height="10.742"/>
	<g enable-background="new    ">
		<path fill="#414042" d="M12.406,10.364h-1.142V3.788c0-0.26,0.008-0.555,0.024-0.885c0.016-0.331,0.04-0.686,0.072-1.063h-0.027
			c-0.027,0.109-0.068,0.231-0.123,0.366c-0.055,0.134-0.113,0.264-0.174,0.389c-0.062,0.126-0.119,0.238-0.171,0.339
			s-0.09,0.176-0.113,0.226L8.236,7.807H7.675L5.16,3.172C5.137,3.118,5.098,3.04,5.043,2.936C4.989,2.834,4.932,2.72,4.873,2.594
			C4.813,2.469,4.757,2.34,4.705,2.208s-0.092-0.255-0.12-0.369H4.558c0.018,0.196,0.032,0.46,0.041,0.793s0.014,0.723,0.014,1.169
			v6.563H3.505V0.561h1.436l2.543,4.662c0.109,0.205,0.203,0.396,0.28,0.574S7.898,6.13,7.935,6.262h0.041
			c0.045-0.137,0.106-0.296,0.181-0.479s0.172-0.378,0.291-0.588l2.536-4.635h1.422V10.364z"/>
		<path fill="#414042" d="M18.927,10.528c-1.39,0-2.503-0.458-3.339-1.374s-1.254-2.107-1.254-3.575
			c0-1.577,0.426-2.835,1.278-3.773s2.012-1.408,3.479-1.408c1.354,0,2.444,0.456,3.271,1.367s1.241,2.104,1.241,3.575
			c0,1.6-0.424,2.864-1.271,3.794S20.349,10.528,18.927,10.528z M19.009,1.436c-1.03,0-1.866,0.371-2.509,1.114
			s-0.964,1.718-0.964,2.926s0.313,2.18,0.94,2.915c0.626,0.736,1.443,1.104,2.451,1.104c1.076,0,1.923-0.351,2.543-1.053
			s0.93-1.684,0.93-2.946c0-1.294-0.301-2.295-0.902-3.001S20.066,1.436,19.009,1.436z"/>
		<path fill="#414042" d="M25.531,10.364V0.561h2.707c3.455,0,5.182,1.593,5.182,4.778c0,1.513-0.479,2.729-1.439,3.647
			c-0.959,0.918-2.243,1.377-3.852,1.377H25.531z M26.679,1.6v7.725h1.463c1.285,0,2.286-0.344,3.001-1.032s1.073-1.663,1.073-2.926
			c0-2.511-1.335-3.767-4.006-3.767H26.679z"/>
		<path fill="#414042" d="M36.496,10.364h-1.148V0.561h1.148V10.364z"/>
		<path fill="#414042" d="M44.049,1.6h-3.828v3.391h3.541v1.032h-3.541v4.341h-1.148V0.561h4.977V1.6z"/>
		<path fill="#414042" d="M47.057,10.364h-1.148V0.561h1.148V10.364z"/>
		<path fill="#414042" d="M56.306,9.954c-0.725,0.383-1.627,0.574-2.707,0.574c-1.395,0-2.511-0.449-3.35-1.347
			s-1.258-2.076-1.258-3.534c0-1.567,0.472-2.835,1.415-3.801s2.14-1.449,3.589-1.449c0.93,0,1.7,0.135,2.311,0.403v1.224
			c-0.702-0.392-1.477-0.588-2.324-0.588c-1.125,0-2.038,0.376-2.738,1.128s-1.049,1.757-1.049,3.015
			c0,1.194,0.327,2.146,0.981,2.854c0.654,0.709,1.512,1.063,2.574,1.063c0.984,0,1.836-0.219,2.557-0.656V9.954z"/>
		<path fill="#414042" d="M63.162,10.364h-1.121V9.27h-0.027c-0.487,0.839-1.205,1.258-2.153,1.258
			c-0.697,0-1.243-0.185-1.637-0.554s-0.591-0.859-0.591-1.47c0-1.308,0.77-2.069,2.311-2.283l2.098-0.294
			c0-1.189-0.48-1.784-1.441-1.784c-0.844,0-1.604,0.287-2.284,0.861V3.856C59.004,3.418,59.797,3.2,60.695,3.2
			c1.645,0,2.467,0.87,2.467,2.611V10.364z M62.041,6.823l-1.688,0.232c-0.52,0.073-0.912,0.201-1.176,0.387
			c-0.264,0.184-0.396,0.511-0.396,0.98c0,0.342,0.122,0.621,0.366,0.838c0.244,0.216,0.568,0.324,0.975,0.324
			c0.556,0,1.015-0.195,1.377-0.584c0.362-0.391,0.543-0.884,0.543-1.48V6.823z"/>
	</g>
</g>
</svg>
