<?xml version="1.0" encoding="utf-8"?>
<!-- Generator: Adobe Illustrator 15.1.0, SVG Export Plug-In . SVG Version: 6.00 Build 0)  -->
<!DOCTYPE svg PUBLIC "-//W3C//DTD SVG 1.1//EN" "http://www.w3.org/Graphics/SVG/1.1/DTD/svg11.dtd">
<svg version="1.1" xmlns="http://www.w3.org/2000/svg" xmlns:xlink="http://www.w3.org/1999/xlink" x="0px" y="0px"
	 width="290.281px" height="36.5px" viewBox="0 0 290.281 36.5" enable-background="new 0 0 290.281 36.5" xml:space="preserve">
<g id="Livello_3">
</g>
<g id="Livello_1">
</g>
<g id="Livello_4">
	<g>
		<line fill="none" stroke="#FFFFFF" stroke-width="0.4" stroke-miterlimit="10" x1="3.642" y1="18" x2="286.538" y2="18"/>
		<g>
			<rect x="0.019" y="-10.5" fill="none" width="290.263" height="26.029"/>
			<path fill="none" stroke="#FFFFFF" stroke-width="1.5" d="M19.395,6.064c0,1.413-0.944,2.435-2.832,3.066
				c-1.328,0.449-3.001,0.674-5.02,0.674H5v5.615H4.414V2.314h7.129c1.992,0,3.665,0.231,5.02,0.693
				C18.45,3.652,19.395,4.671,19.395,6.064z M18.828,6.064c0-1.289-0.859-2.227-2.578-2.813c-1.25-0.43-2.819-0.645-4.707-0.645H5
				v6.904h6.543c1.914,0,3.483-0.208,4.707-0.625C17.969,8.314,18.828,7.373,18.828,6.064z"/>
			<path fill="none" stroke="#FFFFFF" stroke-width="1.5" d="M41.842,15.42h-0.566V8.359H27.447v7.061h-0.586V2.461h0.586v5.615
				h13.828V2.461h0.566V15.42z"/>
			<path fill="none" stroke="#FFFFFF" stroke-width="1.5" d="M64.288,11.816c0,1.042-0.729,1.924-2.188,2.646
				c-1.472,0.723-3.242,1.084-5.313,1.084c-2.083,0-3.854-0.361-5.313-1.084c-1.445-0.723-2.168-1.605-2.168-2.646V6.064
				c0-1.035,0.723-1.92,2.168-2.656c1.458-0.729,3.229-1.094,5.313-1.094s3.854,0.365,5.313,1.094s2.188,1.615,2.188,2.656V11.816z
				 M63.722,11.816V6.064c0-0.951-0.677-1.764-2.031-2.441s-2.988-1.016-4.902-1.016s-3.542,0.335-4.883,1.006
				s-2.012,1.488-2.012,2.451v5.752c0,0.97,0.671,1.791,2.012,2.461s2.969,1.006,4.883,1.006c1.927,0,3.562-0.335,4.902-1.006
				C63.045,13.6,63.722,12.78,63.722,11.816z"/>
			<path fill="none" stroke="#FFFFFF" stroke-width="1.5" d="M86.442,2.607h-6.895V15.42h-0.586V2.607h-6.914V2.314h14.395V2.607z"
				/>
			<path fill="none" stroke="#FFFFFF" stroke-width="1.5" d="M109.182,11.816c0,1.042-0.729,1.924-2.188,2.646
				c-1.472,0.723-3.242,1.084-5.313,1.084c-2.083,0-3.854-0.361-5.313-1.084c-1.445-0.723-2.168-1.605-2.168-2.646V6.064
				c0-1.035,0.723-1.92,2.168-2.656c1.458-0.729,3.229-1.094,5.313-1.094s3.854,0.365,5.313,1.094s2.188,1.615,2.188,2.656V11.816z
				 M108.615,11.816V6.064c0-0.951-0.677-1.764-2.031-2.441s-2.988-1.016-4.902-1.016s-3.542,0.335-4.883,1.006
				s-2.012,1.488-2.012,2.451v5.752c0,0.97,0.671,1.791,2.012,2.461s2.969,1.006,4.883,1.006c1.927,0,3.562-0.335,4.902-1.006
				C107.938,13.6,108.615,12.78,108.615,11.816z"/>
			<path fill="none" stroke="#FFFFFF" stroke-width="1.5" d="M131.629,12.568c0,0.716-0.501,1.374-1.504,1.973
				c-1.146,0.67-2.663,1.006-4.551,1.006c-1.419,0-2.949-0.137-4.59-0.41c-1.589-0.273-2.995-0.622-4.219-1.045l0.332-0.225
				c4.219,0.944,7.044,1.416,8.477,1.416c1.667,0,3.04-0.309,4.121-0.928c0.911-0.534,1.367-1.129,1.367-1.787
				c0-0.729-0.508-1.344-1.523-1.846c-0.677-0.338-1.797-0.703-3.359-1.094l-4.336-1.084c-0.938-0.234-1.934-0.518-2.988-0.85
				c-1.472-0.619-2.207-1.403-2.207-2.354c0-0.742,0.488-1.403,1.465-1.982c1.198-0.697,2.825-1.045,4.883-1.045
				c2.734,0,5.091,0.29,7.07,0.869l-0.313,0.244c-3.19-0.547-5.442-0.82-6.758-0.82c-1.888,0-3.366,0.313-4.434,0.938
				c-0.886,0.521-1.328,1.12-1.328,1.797c0,1.178,1.198,2.064,3.594,2.656c0.247,0.059,0.677,0.156,1.289,0.293
				c1.067,0.254,2.942,0.723,5.625,1.406C130.333,10.387,131.629,11.344,131.629,12.568z"/>
			<path fill="none" stroke="#FFFFFF" stroke-width="1.5" d="M154.076,15.42h-0.566V8.359h-13.828v7.061h-0.586V2.461h0.586v5.615
				h13.828V2.461h0.566V15.42z"/>
			<path fill="#FFFFFF" stroke="#FFFFFF" stroke-width="1.5" d="M176.522,11.816c0,1.042-0.729,1.924-2.188,2.646
				c-1.472,0.723-3.242,1.084-5.313,1.084c-2.083,0-3.854-0.361-5.313-1.084c-1.445-0.723-2.168-1.605-2.168-2.646V6.064
				c0-1.035,0.723-1.92,2.168-2.656c1.458-0.729,3.229-1.094,5.313-1.094s3.854,0.365,5.313,1.094s2.188,1.615,2.188,2.656V11.816z
				 M175.956,11.816V6.064c0-0.951-0.677-1.764-2.031-2.441s-2.988-1.016-4.902-1.016s-3.542,0.335-4.883,1.006
				s-2.012,1.488-2.012,2.451v5.752c0,0.97,0.671,1.791,2.012,2.461s2.969,1.006,4.883,1.006c1.927,0,3.562-0.335,4.902-1.006
				C175.279,13.6,175.956,12.78,175.956,11.816z"/>
			<path fill="#FFFFFF" stroke="#FFFFFF" stroke-width="1.5" d="M198.97,11.816c0,1.042-0.729,1.924-2.188,2.646
				c-1.472,0.723-3.242,1.084-5.313,1.084c-2.083,0-3.854-0.361-5.313-1.084c-1.445-0.723-2.168-1.605-2.168-2.646V6.064
				c0-1.035,0.723-1.92,2.168-2.656c1.458-0.729,3.229-1.094,5.313-1.094s3.854,0.365,5.313,1.094s2.188,1.615,2.188,2.656V11.816z
				 M198.403,11.816V6.064c0-0.951-0.677-1.764-2.031-2.441s-2.988-1.016-4.902-1.016s-3.542,0.335-4.883,1.006
				s-2.012,1.488-2.012,2.451v5.752c0,0.97,0.671,1.791,2.012,2.461s2.969,1.006,4.883,1.006c1.927,0,3.562-0.335,4.902-1.006
				C197.727,13.6,198.403,12.78,198.403,11.816z"/>
			<path fill="none" stroke="#FFFFFF" stroke-width="1.5" d="M221.123,2.607h-6.895V15.42h-0.586V2.607h-6.914V2.314h14.395V2.607z"
				/>
			<path fill="none" stroke="#FFFFFF" stroke-width="1.5" d="M240.699,15.547h-11.816V2.314h11.816v0.293h-11.23v5.469h8.34v0.283
				h-8.34v6.924h11.23V15.547z"/>
			<path fill="none" stroke="#FFFFFF" stroke-width="1.5" d="M263.42,6.064c0,2.025-1.868,3.232-5.605,3.623l5.586,5.674
				l-0.527,0.107l-5.645-5.723c-0.534,0.039-1.087,0.059-1.66,0.059h-6.543v5.615h-0.586V2.314h7.129
				c1.992,0,3.665,0.231,5.02,0.693C262.476,3.652,263.42,4.671,263.42,6.064z M262.854,6.064c0-1.289-0.859-2.227-2.578-2.813
				c-1.25-0.43-2.819-0.645-4.707-0.645h-6.543v6.904h6.543c1.914,0,3.483-0.208,4.707-0.625
				C261.994,8.314,262.854,7.373,262.854,6.064z"/>
			<path fill="none" stroke="#FFFFFF" stroke-width="1.5" d="M285.866,12.568c0,0.716-0.501,1.374-1.504,1.973
				c-1.146,0.67-2.663,1.006-4.551,1.006c-1.419,0-2.949-0.137-4.59-0.41c-1.589-0.273-2.995-0.622-4.219-1.045l0.332-0.225
				c4.219,0.944,7.044,1.416,8.477,1.416c1.667,0,3.04-0.309,4.121-0.928c0.911-0.534,1.367-1.129,1.367-1.787
				c0-0.729-0.508-1.344-1.523-1.846c-0.677-0.338-1.797-0.703-3.359-1.094l-4.336-1.084c-0.938-0.234-1.934-0.518-2.988-0.85
				c-1.472-0.619-2.207-1.403-2.207-2.354c0-0.742,0.488-1.403,1.465-1.982c1.198-0.697,2.825-1.045,4.883-1.045
				c2.734,0,5.091,0.29,7.07,0.869l-0.313,0.244c-3.19-0.547-5.442-0.82-6.758-0.82c-1.888,0-3.366,0.313-4.434,0.938
				c-0.886,0.521-1.328,1.12-1.328,1.797c0,1.178,1.198,2.064,3.594,2.656c0.247,0.059,0.677,0.156,1.289,0.293
				c1.067,0.254,2.942,0.723,5.625,1.406C284.57,10.387,285.866,11.344,285.866,12.568z"/>
		</g>
		<defs>
			<filter id="Adobe_OpacityMaskFilter" filterUnits="userSpaceOnUse" x="0" y="19.718" width="290.263" height="26.797">
				<feFlood  style="flood-color:white;flood-opacity:1" result="back"/>
				<feBlend  in="SourceGraphic" in2="back" mode="normal"/>
			</filter>
		</defs>
		<mask maskUnits="userSpaceOnUse" x="0" y="19.718" width="290.263" height="26.797" id="SVGID_1_">
			<g filter="url(#Adobe_OpacityMaskFilter)">
				<g>
					<linearGradient id="SVGID_2_" gradientUnits="userSpaceOnUse" x1="145.4355" y1="18" x2="145.4355" y2="40.5068">
						<stop  offset="0" style="stop-color:#FFFFFF"/>
						<stop  offset="0.1516" style="stop-color:#C4C4C4"/>
						<stop  offset="0.3213" style="stop-color:#898989"/>
						<stop  offset="0.4854" style="stop-color:#585858"/>
						<stop  offset="0.6393" style="stop-color:#323232"/>
						<stop  offset="0.7809" style="stop-color:#161616"/>
						<stop  offset="0.9055" style="stop-color:#060606"/>
						<stop  offset="1" style="stop-color:#000000"/>
					</linearGradient>
					<rect x="2.096" y="18" fill="url(#SVGID_2_)" width="286.679" height="22.507"/>
					<linearGradient id="SVGID_3_" gradientUnits="userSpaceOnUse" x1="145.3989" y1="18.54" x2="145.3989" y2="39.4268">
						<stop  offset="0" style="stop-color:#FFFFFF"/>
						<stop  offset="0.1516" style="stop-color:#C4C4C4"/>
						<stop  offset="0.3213" style="stop-color:#898989"/>
						<stop  offset="0.4854" style="stop-color:#585858"/>
						<stop  offset="0.6393" style="stop-color:#323232"/>
						<stop  offset="0.7809" style="stop-color:#161616"/>
						<stop  offset="0.9055" style="stop-color:#060606"/>
						<stop  offset="1" style="stop-color:#000000"/>
					</linearGradient>
					<rect x="0.517" y="18.54" fill="url(#SVGID_3_)" width="289.764" height="20.887"/>
				</g>
			</g>
		</mask>
		<g opacity="0.5" mask="url(#SVGID_1_)">
			<rect y="20.485" fill="none" width="290.263" height="26.029"/>
			<path fill="none" stroke="#FFFFFF" stroke-width="1.5" d="M16.543,33.007c-1.354,0.462-3.027,0.693-5.02,0.693H4.395V20.595
				h0.586v5.615h6.543c2.019,0,3.691,0.225,5.02,0.674c1.888,0.631,2.832,1.654,2.832,3.066
				C19.375,31.343,18.431,32.362,16.543,33.007z M16.231,27.128c-1.224-0.417-2.793-0.625-4.707-0.625H4.981v6.904h6.543
				c1.888,0,3.457-0.215,4.707-0.645c1.719-0.586,2.578-1.523,2.578-2.813C18.809,28.642,17.95,27.701,16.231,27.128z"/>
			<path fill="none" stroke="#FFFFFF" stroke-width="1.5" d="M41.823,33.554h-0.566v-5.615H27.428v5.615h-0.586V20.595h0.586v7.061
				h13.828v-7.061h0.566V33.554z"/>
			<path fill="none" stroke="#FFFFFF" stroke-width="1.5" d="M64.269,29.95c0,1.042-0.729,1.927-2.188,2.656
				S58.852,33.7,56.769,33.7s-3.854-0.365-5.313-1.094c-1.445-0.736-2.168-1.621-2.168-2.656v-5.752
				c0-1.042,0.723-1.924,2.168-2.646c1.458-0.723,3.229-1.084,5.313-1.084c2.07,0,3.841,0.361,5.313,1.084
				c1.458,0.723,2.188,1.605,2.188,2.646V29.95z M61.671,21.737c-1.341-0.67-2.976-1.006-4.902-1.006
				c-1.914,0-3.542,0.335-4.883,1.006s-2.012,1.491-2.012,2.461v5.752c0,0.963,0.671,1.781,2.012,2.451s2.969,1.006,4.883,1.006
				s3.548-0.338,4.902-1.016s2.031-1.491,2.031-2.441v-5.752C63.703,23.235,63.026,22.415,61.671,21.737z"/>
			<path fill="none" stroke="#FFFFFF" stroke-width="1.5" d="M86.423,33.7H72.029v-0.293h6.914V20.595h0.586v12.813h6.895V33.7z"/>
			<path fill="none" stroke="#FFFFFF" stroke-width="1.5" d="M109.163,29.95c0,1.042-0.729,1.927-2.188,2.656
				s-3.229,1.094-5.313,1.094s-3.854-0.365-5.313-1.094c-1.445-0.736-2.168-1.621-2.168-2.656v-5.752
				c0-1.042,0.723-1.924,2.168-2.646c1.458-0.723,3.229-1.084,5.313-1.084c2.07,0,3.841,0.361,5.313,1.084
				c1.458,0.723,2.188,1.605,2.188,2.646V29.95z M106.565,21.737c-1.341-0.67-2.976-1.006-4.902-1.006
				c-1.914,0-3.542,0.335-4.883,1.006s-2.012,1.491-2.012,2.461v5.752c0,0.963,0.671,1.781,2.012,2.451s2.969,1.006,4.883,1.006
				s3.548-0.338,4.902-1.016s2.031-1.491,2.031-2.441v-5.752C108.596,23.235,107.919,22.415,106.565,21.737z"/>
			<path fill="none" stroke="#FFFFFF" stroke-width="1.5" d="M127.723,26.317c-2.683,0.684-4.558,1.152-5.625,1.406
				c-0.612,0.137-1.042,0.234-1.289,0.293c-2.396,0.592-3.594,1.478-3.594,2.656c0,0.677,0.442,1.276,1.328,1.797
				c1.067,0.625,2.546,0.938,4.434,0.938c1.315,0,3.567-0.273,6.758-0.82l0.313,0.244c-1.979,0.58-4.336,0.869-7.07,0.869
				c-2.058,0-3.685-0.348-4.883-1.045c-0.977-0.58-1.465-1.24-1.465-1.982c0-0.951,0.735-1.735,2.207-2.354
				c1.055-0.332,2.051-0.615,2.988-0.85l4.336-1.084c1.563-0.391,2.683-0.755,3.359-1.094c1.016-0.501,1.523-1.117,1.523-1.846
				c0-0.658-0.456-1.253-1.367-1.787c-1.081-0.619-2.454-0.928-4.121-0.928c-1.433,0-4.258,0.472-8.477,1.416l-0.332-0.225
				c1.224-0.423,2.63-0.771,4.219-1.045c1.641-0.273,3.171-0.41,4.59-0.41c1.888,0,3.405,0.335,4.551,1.006
				c1.003,0.599,1.504,1.256,1.504,1.973C131.61,24.67,130.314,25.627,127.723,26.317z"/>
			<path fill="none" stroke="#FFFFFF" stroke-width="1.5" d="M154.057,33.554h-0.566v-5.615h-13.828v5.615h-0.586V20.595h0.586
				v7.061h13.828v-7.061h0.566V33.554z"/>
			<path fill="#FFFFFF" stroke="#FFFFFF" stroke-width="1.5" d="M176.503,29.95c0,1.042-0.729,1.927-2.188,2.656
				s-3.229,1.094-5.313,1.094s-3.854-0.365-5.313-1.094c-1.445-0.736-2.168-1.621-2.168-2.656v-5.752
				c0-1.042,0.723-1.924,2.168-2.646c1.458-0.723,3.229-1.084,5.313-1.084c2.07,0,3.841,0.361,5.313,1.084
				c1.458,0.723,2.188,1.605,2.188,2.646V29.95z M173.906,21.737c-1.341-0.67-2.976-1.006-4.902-1.006
				c-1.914,0-3.542,0.335-4.883,1.006s-2.012,1.491-2.012,2.461v5.752c0,0.963,0.671,1.781,2.012,2.451s2.969,1.006,4.883,1.006
				s3.548-0.338,4.902-1.016s2.031-1.491,2.031-2.441v-5.752C175.937,23.235,175.26,22.415,173.906,21.737z"/>
			<path fill="#FFFFFF" stroke="#FFFFFF" stroke-width="1.5" d="M198.951,29.95c0,1.042-0.73,1.927-2.188,2.656
				c-1.459,0.729-3.23,1.094-5.313,1.094c-2.084,0-3.855-0.365-5.313-1.094c-1.445-0.736-2.168-1.621-2.168-2.656v-5.752
				c0-1.042,0.723-1.924,2.168-2.646c1.457-0.723,3.229-1.084,5.313-1.084c2.07,0,3.84,0.361,5.313,1.084
				c1.457,0.723,2.188,1.605,2.188,2.646V29.95z M196.354,21.737c-1.342-0.67-2.977-1.006-4.902-1.006
				c-1.914,0-3.543,0.335-4.883,1.006c-1.342,0.67-2.012,1.491-2.012,2.461v5.752c0,0.963,0.67,1.781,2.012,2.451
				c1.34,0.67,2.969,1.006,4.883,1.006s3.547-0.338,4.902-1.016c1.354-0.677,2.031-1.491,2.031-2.441v-5.752
				C198.385,23.235,197.707,22.415,196.354,21.737z"/>
			<path fill="none" stroke="#FFFFFF" stroke-width="1.5" d="M221.104,33.7h-14.395v-0.293h6.914V20.595h0.586v12.813h6.895V33.7z"
				/>
			<path fill="none" stroke="#FFFFFF" stroke-width="1.5" d="M240.68,20.731h-11.23v6.924h8.34v0.283h-8.34v5.469h11.23V33.7
				h-11.816V20.468h11.816V20.731z"/>
			<path fill="none" stroke="#FFFFFF" stroke-width="1.5" d="M260.568,33.007c-1.354,0.462-3.027,0.693-5.02,0.693h-7.129V20.595
				h0.586v5.615h6.543c0.574,0,1.127,0.02,1.66,0.059l5.645-5.723l0.527,0.107l-5.586,5.674c3.738,0.391,5.605,1.598,5.605,3.623
				C263.4,31.343,262.457,32.362,260.568,33.007z M260.256,27.128c-1.223-0.417-2.793-0.625-4.707-0.625h-6.543v6.904h6.543
				c1.889,0,3.457-0.215,4.707-0.645c1.719-0.586,2.578-1.523,2.578-2.813C262.834,28.642,261.975,27.701,260.256,27.128z"/>
			<path fill="none" stroke="#FFFFFF" stroke-width="1.5" d="M281.961,26.317c-2.684,0.684-4.559,1.152-5.625,1.406
				c-0.613,0.137-1.043,0.234-1.289,0.293c-2.396,0.592-3.594,1.478-3.594,2.656c0,0.677,0.441,1.276,1.328,1.797
				c1.066,0.625,2.545,0.938,4.434,0.938c1.314,0,3.566-0.273,6.758-0.82l0.313,0.244c-1.98,0.58-4.336,0.869-7.07,0.869
				c-2.059,0-3.686-0.348-4.883-1.045c-0.977-0.58-1.465-1.24-1.465-1.982c0-0.951,0.734-1.735,2.207-2.354
				c1.055-0.332,2.051-0.615,2.988-0.85l4.336-1.084c1.563-0.391,2.682-0.755,3.359-1.094c1.016-0.501,1.523-1.117,1.523-1.846
				c0-0.658-0.457-1.253-1.367-1.787c-1.082-0.619-2.455-0.928-4.121-0.928c-1.434,0-4.258,0.472-8.477,1.416l-0.332-0.225
				c1.223-0.423,2.629-0.771,4.219-1.045c1.641-0.273,3.17-0.41,4.59-0.41c1.887,0,3.404,0.335,4.551,1.006
				c1.002,0.599,1.504,1.256,1.504,1.973C285.848,24.67,284.551,25.627,281.961,26.317z"/>
		</g>
	</g>
</g>
</svg>
